<svg xmlns="http://www.w3.org/2000/svg" width="163" height="150" viewBox="0 0 163 150" version="1.1"><path d="M 96.813 17.683 C 97.534 17.972, 98.397 17.936, 98.729 17.604 C 99.061 17.272, 98.471 17.036, 97.417 17.079 C 96.252 17.127, 96.015 17.364, 96.813 17.683 M 102.252 20.500 C 102.263 22.700, 102.468 23.482, 102.707 22.238 C 102.946 20.994, 102.937 19.194, 102.687 18.238 C 102.437 17.282, 102.241 18.300, 102.252 20.500 M 75.500 19 C 75.840 19.550, 76.343 20, 76.618 20 C 76.893 20, 76.840 19.550, 76.500 19 C 76.160 18.450, 75.657 18, 75.382 18 C 75.107 18, 75.160 18.450, 75.500 19 M 96.813 19.683 C 97.534 19.972, 98.397 19.936, 98.729 19.604 C 99.061 19.272, 98.471 19.036, 97.417 19.079 C 96.252 19.127, 96.015 19.364, 96.813 19.683 M 73.333 21.333 C 73.333 22.067, 73.926 22.667, 74.651 22.667 C 75.635 22.667, 75.689 22.330, 74.862 21.333 C 74.253 20.600, 73.660 20, 73.544 20 C 73.428 20, 73.333 20.600, 73.333 21.333 M 88.167 24.750 L 84.412 28.500 87.956 25.503 C 89.905 23.854, 91.927 22.167, 92.450 21.753 C 92.973 21.339, 93.068 21, 92.661 21 C 92.255 21, 90.233 22.688, 88.167 24.750 M 100 22 C 100 22.733, 100.300 23.033, 100.667 22.667 C 101.033 22.300, 101.033 21.700, 100.667 21.333 C 100.300 20.967, 100 21.267, 100 22 M 84.872 23.750 C 83.629 25.336, 83.664 25.371, 85.250 24.128 C 86.916 22.821, 87.445 22, 86.622 22 C 86.415 22, 85.627 22.788, 84.872 23.750 M 78.564 24.293 C 78.940 25.279, 79.499 25.834, 79.807 25.526 C 80.115 25.219, 79.808 24.412, 79.124 23.733 C 78.136 22.753, 78.022 22.868, 78.564 24.293 M 75.405 25.155 C 74.962 25.870, 75.130 26.038, 75.845 25.595 C 76.480 25.203, 77 24.684, 77 24.441 C 77 23.607, 76.117 24.002, 75.405 25.155 M 99 25 C 99 25.733, 99.300 26.033, 99.667 25.667 C 100.033 25.300, 100.033 24.700, 99.667 24.333 C 99.300 23.967, 99 24.267, 99 25 M 101 26 C 101 26.733, 101.300 27.033, 101.667 26.667 C 102.033 26.300, 102.033 25.700, 101.667 25.333 C 101.300 24.967, 101 25.267, 101 26 M 78 29 C 78 29.733, 78.300 30.033, 78.667 29.667 C 79.033 29.300, 79.033 28.700, 78.667 28.333 C 78.300 27.967, 78 28.267, 78 29 M 95.405 31.250 L 93.500 33.500 95.750 31.595 C 97.864 29.805, 98.455 29, 97.655 29 C 97.465 29, 96.453 30.012, 95.405 31.250 M 83.500 31 C 83.840 31.550, 84.343 32, 84.618 32 C 84.893 32, 84.840 31.550, 84.500 31 C 84.160 30.450, 83.657 30, 83.382 30 C 83.107 30, 83.160 30.450, 83.500 31 M 98.405 31.155 C 97.962 31.870, 98.130 32.038, 98.845 31.595 C 99.480 31.203, 100 30.684, 100 30.441 C 100 29.607, 99.117 30.002, 98.405 31.155 M 79.195 34.500 C 79.215 36.150, 79.439 36.704, 79.693 35.731 C 79.947 34.758, 79.930 33.408, 79.656 32.731 C 79.382 32.054, 79.175 32.850, 79.195 34.500 M 91.405 34.155 C 90.962 34.870, 91.130 35.038, 91.845 34.595 C 92.480 34.203, 93 33.684, 93 33.441 C 93 32.607, 92.117 33.002, 91.405 34.155 M 61.813 35.683 C 62.534 35.972, 63.397 35.936, 63.729 35.604 C 64.061 35.272, 63.471 35.036, 62.417 35.079 C 61.252 35.127, 61.015 35.364, 61.813 35.683 M 69.813 35.683 C 70.534 35.972, 71.397 35.936, 71.729 35.604 C 72.061 35.272, 71.471 35.036, 70.417 35.079 C 69.252 35.127, 69.015 35.364, 69.813 35.683 M 98.813 35.683 C 99.534 35.972, 100.397 35.936, 100.729 35.604 C 101.061 35.272, 100.471 35.036, 99.417 35.079 C 98.252 35.127, 98.015 35.364, 98.813 35.683 M 55.757 38.250 C 54.462 39.487, 54.099 40, 54.951 39.390 C 55.803 38.779, 57.400 37.781, 58.500 37.170 C 59.600 36.560, 59.963 36.047, 59.306 36.030 C 58.649 36.014, 57.052 37.013, 55.757 38.250 M 73.333 36.667 C 73.700 37.033, 74.300 37.033, 74.667 36.667 C 75.033 36.300, 74.733 36, 74 36 C 73.267 36, 72.967 36.300, 73.333 36.667 M 86.333 36.667 C 86.700 37.033, 87.300 37.033, 87.667 36.667 C 88.033 36.300, 87.733 36, 87 36 C 86.267 36, 85.967 36.300, 86.333 36.667 M 62.813 37.683 C 63.534 37.972, 64.397 37.936, 64.729 37.604 C 65.061 37.272, 64.471 37.036, 63.417 37.079 C 62.252 37.127, 62.015 37.364, 62.813 37.683 M 68.750 37.662 C 69.438 37.940, 70.563 37.940, 71.250 37.662 C 71.938 37.385, 71.375 37.158, 70 37.158 C 68.625 37.158, 68.063 37.385, 68.750 37.662 M 76.333 37.667 C 76.700 38.033, 77.300 38.033, 77.667 37.667 C 78.033 37.300, 77.733 37, 77 37 C 76.267 37, 75.967 37.300, 76.333 37.667 M 83.333 37.667 C 83.700 38.033, 84.300 38.033, 84.667 37.667 C 85.033 37.300, 84.733 37, 84 37 C 83.267 37, 82.967 37.300, 83.333 37.667 M 91.813 37.683 C 92.534 37.972, 93.397 37.936, 93.729 37.604 C 94.061 37.272, 93.471 37.036, 92.417 37.079 C 91.252 37.127, 91.015 37.364, 91.813 37.683 M 96.750 37.662 C 97.438 37.940, 98.563 37.940, 99.250 37.662 C 99.938 37.385, 99.375 37.158, 98 37.158 C 96.625 37.158, 96.063 37.385, 96.750 37.662 M 58.507 38.989 C 58.157 39.555, 58.558 39.723, 59.448 39.382 C 61.180 38.717, 61.497 38, 60.059 38 C 59.541 38, 58.843 38.445, 58.507 38.989 M 73.333 38.667 C 73.700 39.033, 74.300 39.033, 74.667 38.667 C 75.033 38.300, 74.733 38, 74 38 C 73.267 38, 72.967 38.300, 73.333 38.667 M 87.333 38.667 C 87.700 39.033, 88.300 39.033, 88.667 38.667 C 89.033 38.300, 88.733 38, 88 38 C 87.267 38, 86.967 38.300, 87.333 38.667 M 108 40.500 C 109.292 41.875, 110.574 43, 110.849 43 C 111.124 43, 110.292 41.875, 109 40.500 C 107.708 39.125, 106.426 38, 106.151 38 C 105.876 38, 106.708 39.125, 108 40.500 M 76.333 39.667 C 76.700 40.033, 77.300 40.033, 77.667 39.667 C 78.033 39.300, 77.733 39, 77 39 C 76.267 39, 75.967 39.300, 76.333 39.667 M 84.333 39.667 C 84.700 40.033, 85.300 40.033, 85.667 39.667 C 86.033 39.300, 85.733 39, 85 39 C 84.267 39, 83.967 39.300, 84.333 39.667 M 54.099 42.395 C 52.351 44.255, 52.145 44.960, 53.175 45.555 C 53.904 45.976, 54.158 45.944, 53.741 45.485 C 53.323 45.025, 53.964 43.602, 55.165 42.324 C 56.366 41.046, 57.124 40, 56.849 40 C 56.574 40, 55.336 41.078, 54.099 42.395 M 79.507 40.989 C 79.157 41.555, 79.558 41.723, 80.448 41.382 C 82.180 40.717, 82.497 40, 81.059 40 C 80.541 40, 79.843 40.445, 79.507 40.989 M 105 41.393 C 105 41.609, 105.698 42.054, 106.552 42.382 C 107.442 42.723, 107.843 42.555, 107.493 41.989 C 106.906 41.038, 105 40.583, 105 41.393 M 50.405 43.155 C 49.962 43.870, 50.130 44.038, 50.845 43.595 C 51.998 42.883, 52.393 42, 51.559 42 C 51.316 42, 50.797 42.520, 50.405 43.155 M 64.500 45 C 64.840 45.550, 65.343 46, 65.618 46 C 65.893 46, 65.840 45.550, 65.500 45 C 65.160 44.450, 64.657 44, 64.382 44 C 64.107 44, 64.160 44.450, 64.500 45 M 112.080 46 C 113.538 49.061, 114 49.628, 114 48.358 C 114 47.821, 113.300 46.509, 112.445 45.441 C 110.978 43.611, 110.958 43.643, 112.080 46 M 48.143 45.890 C 47.309 46.419, 47.172 46.988, 47.788 47.369 C 48.340 47.710, 49.048 47.316, 49.364 46.494 C 50.026 44.767, 49.964 44.737, 48.143 45.890 M 110.080 47 C 111.538 50.061, 112 50.628, 112 49.358 C 112 48.821, 111.300 47.509, 110.445 46.441 C 108.978 44.611, 108.958 44.643, 110.080 47 M 58.405 49.155 C 57.962 49.870, 58.130 50.038, 58.845 49.595 C 59.998 48.883, 60.393 48, 59.559 48 C 59.316 48, 58.797 48.520, 58.405 49.155 M 47 50 C 47 50.733, 47.300 51.033, 47.667 50.667 C 48.033 50.300, 48.033 49.700, 47.667 49.333 C 47.300 48.967, 47 49.267, 47 50 M 49 51 C 49 51.733, 49.300 52.033, 49.667 51.667 C 50.033 51.300, 50.033 50.700, 49.667 50.333 C 49.300 49.967, 49 50.267, 49 51 M 114 51 C 114 51.733, 114.300 52.033, 114.667 51.667 C 115.033 51.300, 115.033 50.700, 114.667 50.333 C 114.300 49.967, 114 50.267, 114 51 M 112 52 C 112 52.733, 112.300 53.033, 112.667 52.667 C 113.033 52.300, 113.033 51.700, 112.667 51.333 C 112.300 50.967, 112 51.267, 112 52 M 46.300 58 C 46.300 61.025, 46.487 62.263, 46.716 60.750 C 46.945 59.237, 46.945 56.763, 46.716 55.250 C 46.487 53.737, 46.300 54.975, 46.300 58 M 48.300 58 C 48.300 61.025, 48.487 62.263, 48.716 60.750 C 48.945 59.237, 48.945 56.763, 48.716 55.250 C 48.487 53.737, 48.300 54.975, 48.300 58 M 56.195 56.500 C 56.215 58.150, 56.439 58.704, 56.693 57.731 C 56.947 56.758, 56.930 55.408, 56.656 54.731 C 56.382 54.054, 56.175 54.850, 56.195 56.500 M 113.232 58 C 113.232 59.925, 113.438 60.712, 113.689 59.750 C 113.941 58.788, 113.941 57.212, 113.689 56.250 C 113.438 55.288, 113.232 56.075, 113.232 58 M 115.252 58.500 C 115.263 60.700, 115.468 61.482, 115.707 60.238 C 115.946 58.994, 115.937 57.194, 115.687 56.238 C 115.437 55.282, 115.241 56.300, 115.252 58.500 M 58.195 59.500 C 58.215 61.150, 58.439 61.704, 58.693 60.731 C 58.947 59.758, 58.930 58.408, 58.656 57.731 C 58.382 57.054, 58.175 57.850, 58.195 59.500 M 56.158 63 C 56.158 64.375, 56.385 64.938, 56.662 64.250 C 56.940 63.563, 56.940 62.438, 56.662 61.750 C 56.385 61.063, 56.158 61.625, 56.158 63 M 111 62 C 111 62.733, 111.300 63.033, 111.667 62.667 C 112.033 62.300, 112.033 61.700, 111.667 61.333 C 111.300 60.967, 111 61.267, 111 62 M 112.079 65.583 C 112.127 66.748, 112.364 66.985, 112.683 66.188 C 112.972 65.466, 112.936 64.603, 112.604 64.271 C 112.272 63.939, 112.036 64.529, 112.079 65.583 M 114.079 65.583 C 114.127 66.748, 114.364 66.985, 114.683 66.188 C 114.972 65.466, 114.936 64.603, 114.604 64.271 C 114.272 63.939, 114.036 64.529, 114.079 65.583 M 47.079 66.583 C 47.127 67.748, 47.364 67.985, 47.683 67.188 C 47.972 66.466, 47.936 65.603, 47.604 65.271 C 47.272 64.939, 47.036 65.529, 47.079 66.583 M 49.079 66.583 C 49.127 67.748, 49.364 67.985, 49.683 67.188 C 49.972 66.466, 49.936 65.603, 49.604 65.271 C 49.272 64.939, 49.036 65.529, 49.079 66.583 M 59 66 C 59 66.733, 59.300 67.033, 59.667 66.667 C 60.033 66.300, 60.033 65.700, 59.667 65.333 C 59.300 64.967, 59 65.267, 59 66 M 56.564 68.707 C 56.022 70.132, 56.136 70.247, 57.124 69.267 C 57.808 68.588, 58.115 67.781, 57.807 67.474 C 57.499 67.166, 56.940 67.721, 56.564 68.707 M 111 69 C 111 69.733, 111.300 70.033, 111.667 69.667 C 112.033 69.300, 112.033 68.700, 111.667 68.333 C 111.300 67.967, 111 68.267, 111 69 M 50 70 C 50 70.733, 50.300 71.033, 50.667 70.667 C 51.033 70.300, 51.033 69.700, 50.667 69.333 C 50.300 68.967, 50 69.267, 50 70 M 113 70 C 113 70.733, 113.300 71.033, 113.667 70.667 C 114.033 70.300, 114.033 69.700, 113.667 69.333 C 113.300 68.967, 113 69.267, 113 70 M 48 71 C 48 71.733, 48.300 72.033, 48.667 71.667 C 49.033 71.300, 49.033 70.700, 48.667 70.333 C 48.300 69.967, 48 70.267, 48 71 M 110 72 C 110 72.733, 110.300 73.033, 110.667 72.667 C 111.033 72.300, 111.033 71.700, 110.667 71.333 C 110.300 70.967, 110 71.267, 110 72 M 58.601 72.836 C 58.347 73.248, 59.007 73.650, 60.069 73.730 C 62.366 73.903, 62.568 73.432, 60.532 72.651 C 59.725 72.341, 58.856 72.424, 58.601 72.836 M 111 75 C 111 75.733, 111.300 76.033, 111.667 75.667 C 112.033 75.300, 112.033 74.700, 111.667 74.333 C 111.300 73.967, 111 74.267, 111 75 M 107.405 77.155 C 106.962 77.870, 107.130 78.038, 107.845 77.595 C 108.998 76.883, 109.393 76, 108.559 76 C 108.316 76, 107.797 76.520, 107.405 77.155 M 109 79 C 108.411 80.100, 108.155 81, 108.430 81 C 108.705 81, 109.411 80.100, 110 79 C 110.589 77.900, 110.845 77, 110.570 77 C 110.295 77, 109.589 77.900, 109 79 M 54.500 79 C 54.840 79.550, 55.343 80, 55.618 80 C 55.893 80, 55.840 79.550, 55.500 79 C 55.160 78.450, 54.657 78, 54.382 78 C 54.107 78, 54.160 78.450, 54.500 79 M 105 80 C 104.099 80.582, 103.975 80.975, 104.691 80.985 C 105.346 80.993, 106.160 80.550, 106.500 80 C 107.267 78.758, 106.921 78.758, 105 80 M 53 81.378 C 53 81.585, 53.788 82.373, 54.750 83.128 C 56.336 84.371, 56.371 84.336, 55.128 82.750 C 53.821 81.084, 53 80.555, 53 81.378 M 59.500 85 C 61.648 87.200, 63.592 89, 63.819 89 C 64.661 89, 57.464 81.166, 56.547 81.085 C 56.023 81.038, 57.352 82.800, 59.500 85 M 101.437 85.250 L 98.500 88.500 101.750 85.563 C 103.537 83.948, 105 82.485, 105 82.313 C 105 81.540, 104.175 82.221, 101.437 85.250 M 104.405 85.250 L 102.500 87.500 104.750 85.595 C 105.987 84.547, 107 83.535, 107 83.345 C 107 82.545, 106.195 83.136, 104.405 85.250 M 57 86.378 C 57 86.585, 57.788 87.373, 58.750 88.128 C 60.336 89.371, 60.371 89.336, 59.128 87.750 C 57.821 86.084, 57 85.555, 57 86.378 M 95.500 89 C 95.840 89.550, 96.343 90, 96.618 90 C 96.893 90, 96.840 89.550, 96.500 89 C 96.160 88.450, 95.657 88, 95.382 88 C 95.107 88, 95.160 88.450, 95.500 89 M 99.872 89.750 C 98.603 91.369, 98.650 91.390, 100.500 90.033 C 101.600 89.226, 102.688 88.439, 102.917 88.283 C 103.146 88.127, 102.863 88, 102.289 88 C 101.715 88, 100.627 88.787, 99.872 89.750 M 65.733 90.124 C 66.412 90.808, 67.219 91.115, 67.526 90.807 C 67.834 90.499, 67.279 89.940, 66.293 89.564 C 64.868 89.022, 64.753 89.136, 65.733 90.124 M 63.441 91.445 C 64.509 92.300, 65.821 93, 66.358 93 C 67.628 93, 67.061 92.538, 64 91.080 C 61.643 89.958, 61.611 89.978, 63.441 91.445 M 83.500 91 C 84.600 91.473, 86.400 91.846, 87.500 91.830 C 89.108 91.806, 89.010 91.644, 87 91 C 83.581 89.905, 80.952 89.905, 83.500 91 M 69.813 91.683 C 70.534 91.972, 71.397 91.936, 71.729 91.604 C 72.061 91.272, 71.471 91.036, 70.417 91.079 C 69.252 91.127, 69.015 91.364, 69.813 91.683 M 73.813 91.683 C 74.534 91.972, 75.397 91.936, 75.729 91.604 C 76.061 91.272, 75.471 91.036, 74.417 91.079 C 73.252 91.127, 73.015 91.364, 73.813 91.683 M 90.813 91.683 C 91.534 91.972, 92.397 91.936, 92.729 91.604 C 93.061 91.272, 92.471 91.036, 91.417 91.079 C 90.252 91.127, 90.015 91.364, 90.813 91.683 M 79.250 93.080 C 80.439 93.772, 81.561 93.772, 82.750 93.080 C 84.178 92.249, 83.855 92.061, 81 92.061 C 78.145 92.061, 77.822 92.249, 79.250 93.080 M 68.813 93.683 C 69.534 93.972, 70.397 93.936, 70.729 93.604 C 71.061 93.272, 70.471 93.036, 69.417 93.079 C 68.252 93.127, 68.015 93.364, 68.813 93.683 M 73.750 93.662 C 74.438 93.940, 75.563 93.940, 76.250 93.662 C 76.938 93.385, 76.375 93.158, 75 93.158 C 73.625 93.158, 73.063 93.385, 73.750 93.662 M 85.813 93.683 C 86.534 93.972, 87.397 93.936, 87.729 93.604 C 88.061 93.272, 87.471 93.036, 86.417 93.079 C 85.252 93.127, 85.015 93.364, 85.813 93.683 M 90.750 93.662 C 91.438 93.940, 92.563 93.940, 93.250 93.662 C 93.938 93.385, 93.375 93.158, 92 93.158 C 90.625 93.158, 90.063 93.385, 90.750 93.662 M 32 103.118 C 30.075 103.458, 55.012 103.796, 87.417 103.868 C 119.821 103.941, 146.057 103.723, 145.719 103.385 C 144.907 102.574, 36.523 102.319, 32 103.118 M 24.559 105.532 C 23.491 106.339, 23.041 106.986, 23.559 106.968 C 24.076 106.951, 25.374 106.276, 26.441 105.468 C 27.509 104.661, 27.959 104.014, 27.441 104.032 C 26.924 104.049, 25.626 104.724, 24.559 105.532 M 27.441 106.555 C 25.531 108.085, 25.532 108.096, 27.500 107.190 C 28.600 106.684, 30.175 106.020, 31 105.714 C 32.296 105.234, 32.288 105.147, 30.941 105.079 C 30.084 105.036, 28.509 105.700, 27.441 106.555 M 34.762 106.707 C 36.006 106.946, 37.806 106.937, 38.762 106.687 C 39.718 106.437, 38.700 106.241, 36.500 106.252 C 34.300 106.263, 33.518 106.468, 34.762 106.707 M 20.405 110.155 C 19.962 110.870, 20.130 111.038, 20.845 110.595 C 21.480 110.203, 22 109.684, 22 109.441 C 22 108.607, 21.117 109.002, 20.405 110.155 M 22.981 110.523 C 21.924 111.796, 21.986 111.943, 23.359 111.416 C 24.261 111.069, 25 110.384, 25 109.893 C 25 108.607, 24.421 108.788, 22.981 110.523 M 61.750 110.749 C 76.187 110.905, 99.812 110.905, 114.250 110.749 C 128.687 110.593, 116.875 110.465, 88 110.465 C 59.125 110.465, 47.312 110.593, 61.750 110.749 M 27.333 112.456 C 27.333 113.257, 27.716 113.676, 28.183 113.387 C 28.650 113.098, 28.774 112.443, 28.457 111.931 C 27.649 110.623, 27.333 110.770, 27.333 112.456 M 34.432 118.747 L 34.500 126.500 87.250 126.513 L 140 126.527 87.542 126.255 L 35.084 125.982 34.724 118.488 L 34.365 110.993 34.432 118.747 M 19 113 C 19 113.733, 19.300 114.033, 19.667 113.667 C 20.033 113.300, 20.033 112.700, 19.667 112.333 C 19.300 111.967, 19 112.267, 19 113 M 30.310 117.500 C 30.315 120.800, 30.502 122.029, 30.725 120.232 C 30.947 118.435, 30.943 115.735, 30.715 114.232 C 30.486 112.729, 30.304 114.200, 30.310 117.500 M 138 113 C 138 113.733, 138.300 114.033, 138.667 113.667 C 139.033 113.300, 139.033 112.700, 138.667 112.333 C 138.300 111.967, 138 112.267, 138 113 M 37.652 113.750 C 37.396 114.162, 43.332 114.383, 50.843 114.241 C 76.046 113.762, 78.649 113.399, 58.309 113.199 C 47.204 113.089, 37.908 113.338, 37.652 113.750 M 109 113.740 C 130.592 113.985, 133.648 114.217, 134.750 115.700 C 135.438 116.625, 136 116.936, 136 116.391 C 136 113.300, 133.450 113.001, 109.050 113.231 L 84.500 113.463 109 113.740 M 26.252 118.500 C 26.263 120.700, 26.468 121.482, 26.707 120.238 C 26.946 118.994, 26.937 117.194, 26.687 116.238 C 26.437 115.282, 26.241 116.300, 26.252 118.500 M 137.252 118.500 C 137.263 120.700, 137.468 121.482, 137.707 120.238 C 137.946 118.994, 137.937 117.194, 137.687 116.238 C 137.437 115.282, 137.241 116.300, 137.252 118.500 M 18.195 118.500 C 18.215 120.150, 18.439 120.704, 18.693 119.731 C 18.947 118.758, 18.930 117.408, 18.656 116.731 C 18.382 116.054, 18.175 116.850, 18.195 118.500 M 20.232 119 C 20.232 120.925, 20.438 121.713, 20.689 120.750 C 20.941 119.787, 20.941 118.213, 20.689 117.250 C 20.438 116.287, 20.232 117.075, 20.232 119 M 77.613 118.183 C 77.902 118.650, 78.557 118.774, 79.069 118.457 C 80.377 117.649, 80.230 117.333, 78.544 117.333 C 77.743 117.333, 77.324 117.716, 77.613 118.183 M 83.500 118 C 83.840 118.550, 84.343 119, 84.618 119 C 84.893 119, 84.840 118.550, 84.500 118 C 84.160 117.450, 83.657 117, 83.382 117 C 83.107 117, 83.160 117.450, 83.500 118 M 133.500 118 C 133.840 118.550, 134.343 119, 134.618 119 C 134.893 119, 134.840 118.550, 134.500 118 C 134.160 117.450, 133.657 117, 133.382 117 C 133.107 117, 133.160 117.450, 133.500 118 M 64.582 119.750 C 39.157 120.029, 35.951 120.436, 36.030 123.372 C 36.047 123.993, 36.519 123.713, 37.080 122.750 C 38.001 121.169, 40.346 120.987, 61.300 120.862 C 74.060 120.787, 95.525 120.421, 109 120.050 L 133.500 119.374 112 119.420 C 100.175 119.444, 78.837 119.593, 64.582 119.750 M 21.405 123.155 C 20.962 123.870, 21.130 124.038, 21.845 123.595 C 22.480 123.203, 23 122.684, 23 122.441 C 23 121.607, 22.117 122.002, 21.405 123.155 M 91 123 C 91 123.733, 91.300 124.033, 91.667 123.667 C 92.033 123.300, 92.033 122.700, 91.667 122.333 C 91.300 121.967, 91 122.267, 91 123 M 19 124 C 19 124.733, 19.300 125.033, 19.667 124.667 C 20.033 124.300, 20.033 123.700, 19.667 123.333 C 19.300 122.967, 19 123.267, 19 124 M 27.500 124 C 27.840 124.550, 28.343 125, 28.618 125 C 28.893 125, 28.840 124.550, 28.500 124 C 28.160 123.450, 27.657 123, 27.382 123 C 27.107 123, 27.160 123.450, 27.500 124 M 138 124 C 138 124.733, 138.300 125.033, 138.667 124.667 C 139.033 124.300, 139.033 123.700, 138.667 123.333 C 138.300 122.967, 138 123.267, 138 124 M 51.250 124.747 C 58.263 124.919, 69.738 124.919, 76.750 124.747 C 83.763 124.575, 78.025 124.435, 64 124.435 C 49.975 124.435, 44.238 124.575, 51.250 124.747 M 22 125.344 C 22 125.499, 23.423 126.948, 25.163 128.563 C 28.320 131.495, 28.322 131.496, 26.413 128.792 C 24.819 126.537, 22 124.334, 22 125.344 M 20.500 127 C 20.840 127.550, 21.343 128, 21.618 128 C 21.893 128, 21.840 127.550, 21.500 127 C 21.160 126.450, 20.657 126, 20.382 126 C 20.107 126, 20.160 126.450, 20.500 127 M 22.500 130 C 22.840 130.550, 23.343 131, 23.618 131 C 23.893 131, 23.840 130.550, 23.500 130 C 23.160 129.450, 22.657 129, 22.382 129 C 22.107 129, 22.160 129.450, 22.500 130 M 30 131 C 28.793 131.780, 28.951 131.972, 30.809 131.985 C 32.097 131.993, 32.845 131.558, 32.500 131 C 31.757 129.798, 31.861 129.798, 30 131 M 144.361 130.765 C 143.529 131.301, 143.580 131.833, 144.547 132.730 C 145.617 133.723, 145.844 133.578, 145.724 131.980 C 145.642 130.891, 145.558 130.007, 145.537 130.015 C 145.517 130.024, 144.987 130.361, 144.361 130.765 M 137.250 131.689 C 138.213 131.941, 139.787 131.941, 140.750 131.689 C 141.713 131.438, 140.925 131.232, 139 131.232 C 137.075 131.232, 136.287 131.438, 137.250 131.689 M 29.750 133.662 C 30.438 133.940, 31.563 133.940, 32.250 133.662 C 32.938 133.385, 32.375 133.158, 31 133.158 C 29.625 133.158, 29.063 133.385, 29.750 133.662 M 89.315 135.749 C 99.664 135.912, 116.314 135.911, 126.315 135.748 C 136.317 135.585, 127.850 135.452, 107.500 135.453 C 87.150 135.453, 78.967 135.586, 89.315 135.749" stroke="none" fill="#fcfcec" fill-rule="evenodd"/><path d="M 96.500 15.929 C 92.061 17, 88.929 18.827, 84.851 22.723 C 81.441 25.981, 81.159 26.077, 80.559 24.187 C 78.861 18.837, 72 14.306, 72 18.535 C 72 20.875, 75.081 25.068, 76.264 24.337 C 76.855 23.972, 77.013 24.170, 76.627 24.794 C 76.252 25.401, 76.465 27.963, 77.101 30.487 C 77.737 33.011, 78.080 35.254, 77.863 35.470 C 77.647 35.686, 74.993 35.174, 71.965 34.331 C 67.617 33.121, 65.604 33.030, 62.384 33.897 C 57.986 35.081, 50 40.349, 50 42.065 C 50 42.644, 50.563 42.794, 51.250 42.399 C 51.976 41.981, 52.151 42.061, 51.667 42.590 C 51.208 43.090, 50.346 43.500, 49.750 43.500 C 49.154 43.500, 48.458 44.125, 48.204 44.889 C 47.925 45.725, 48.186 46.003, 48.859 45.587 C 49.570 45.148, 49.761 45.459, 49.384 46.442 C 49.057 47.293, 48.387 47.739, 47.893 47.434 C 46.110 46.332, 44.822 52.643, 45.217 60.545 C 45.537 66.942, 46.270 69.980, 48.791 75.366 C 50.535 79.093, 52.369 81.890, 52.867 81.582 C 53.366 81.274, 54.387 81.805, 55.137 82.761 C 56.370 84.335, 56.334 84.370, 54.750 83.128 C 53.788 82.373, 53 82.167, 53 82.669 C 53 84.123, 61.186 91.624, 64.700 93.391 C 69.486 95.797, 82.683 95.316, 78.834 92.876 C 77.960 92.322, 78.708 92.031, 81 92.031 C 83.292 92.031, 84.040 92.322, 83.166 92.876 C 79.358 95.290, 92.536 95.809, 97.143 93.426 C 98.816 92.561, 99.923 91.590, 99.602 91.268 C 98.843 90.510, 100.926 88, 102.314 88 C 102.901 88, 102.509 88.661, 101.441 89.468 C 100.374 90.276, 99.978 90.951, 100.563 90.968 C 101.792 91.005, 107 85.805, 107 84.540 C 107 84.073, 105.987 84.547, 104.750 85.595 L 102.500 87.500 104.384 85.274 C 105.420 84.049, 106.641 83.278, 107.098 83.560 C 108.214 84.250, 112.375 77.519, 114.599 71.429 C 117.278 64.089, 117.064 51.781, 114.159 46.215 C 112.930 43.858, 111.556 42.156, 111.107 42.434 C 110.046 43.089, 105.776 38.558, 106.640 37.694 C 107.002 37.332, 105.508 36.234, 103.320 35.255 C 100.831 34.140, 99.514 32.959, 99.801 32.098 C 100.106 31.183, 99.828 30.988, 98.975 31.515 C 98.127 32.040, 97.937 31.912, 98.415 31.138 C 98.813 30.494, 99.567 30.232, 100.090 30.556 C 101.480 31.415, 104 24.700, 104 20.139 C 104 17.482, 103.489 16.018, 102.418 15.607 C 100.646 14.927, 100.653 14.927, 96.500 15.929 M 96.813 17.683 C 97.534 17.972, 98.397 17.936, 98.729 17.604 C 99.061 17.272, 98.471 17.036, 97.417 17.079 C 96.252 17.127, 96.015 17.364, 96.813 17.683 M 102.252 20.500 C 102.263 22.700, 102.468 23.482, 102.707 22.238 C 102.946 20.994, 102.937 19.194, 102.687 18.238 C 102.437 17.282, 102.241 18.300, 102.252 20.500 M 75.500 19 C 75.840 19.550, 76.343 20, 76.618 20 C 76.893 20, 76.840 19.550, 76.500 19 C 76.160 18.450, 75.657 18, 75.382 18 C 75.107 18, 75.160 18.450, 75.500 19 M 96.813 19.683 C 97.534 19.972, 98.397 19.936, 98.729 19.604 C 99.061 19.272, 98.471 19.036, 97.417 19.079 C 96.252 19.127, 96.015 19.364, 96.813 19.683 M 73 20.378 C 73 20.585, 73.787 21.373, 74.750 22.128 C 76.336 23.371, 76.371 23.336, 75.128 21.750 C 73.821 20.084, 73 19.555, 73 20.378 M 88.167 24.750 C 86.102 26.813, 85.803 27.262, 87.504 25.750 C 92.094 21.667, 92.744 22.419, 88.321 26.696 C 86.220 28.729, 84.275 30.341, 84 30.279 C 83.725 30.217, 83.500 31.479, 83.500 33.083 C 83.500 34.688, 83.627 36, 83.782 36 C 83.937 36, 85.680 35.325, 87.654 34.500 C 91.970 32.697, 92.326 32.664, 91.405 34.155 C 90.959 34.876, 91.131 35.037, 91.862 34.585 C 92.506 34.187, 92.811 33.503, 92.540 33.065 C 92.269 32.626, 92.999 31.420, 94.162 30.384 C 96.468 28.329, 99.453 22.120, 98.563 21.229 C 98.258 20.925, 96.860 21.198, 95.457 21.838 C 92.333 23.261, 91.699 23.296, 92.500 22 C 93.825 19.856, 91.748 21.174, 88.167 24.750 M 100 22 C 100 22.733, 100.300 23.033, 100.667 22.667 C 101.033 22.300, 101.033 21.700, 100.667 21.333 C 100.300 20.967, 100 21.267, 100 22 M 84.872 23.750 C 83.629 25.336, 83.664 25.371, 85.250 24.128 C 86.916 22.821, 87.445 22, 86.622 22 C 86.415 22, 85.627 22.788, 84.872 23.750 M 78.564 24.293 C 78.940 25.279, 79.499 25.834, 79.807 25.526 C 80.115 25.219, 79.808 24.412, 79.124 23.733 C 78.136 22.753, 78.022 22.868, 78.564 24.293 M 99 25 C 99 25.733, 99.300 26.033, 99.667 25.667 C 100.033 25.300, 100.033 24.700, 99.667 24.333 C 99.300 23.967, 99 24.267, 99 25 M 101 26 C 101 26.733, 101.300 27.033, 101.667 26.667 C 102.033 26.300, 102.033 25.700, 101.667 25.333 C 101.300 24.967, 101 25.267, 101 26 M 78 29 C 78 29.733, 78.300 30.033, 78.667 29.667 C 79.033 29.300, 79.033 28.700, 78.667 28.333 C 78.300 27.967, 78 28.267, 78 29 M 95.405 31.250 L 93.500 33.500 95.750 31.595 C 97.864 29.805, 98.455 29, 97.655 29 C 97.465 29, 96.453 30.012, 95.405 31.250 M 79.195 34.500 C 79.215 36.150, 79.439 36.704, 79.693 35.731 C 79.947 34.758, 79.930 33.408, 79.656 32.731 C 79.382 32.054, 79.175 32.850, 79.195 34.500 M 61.813 35.683 C 62.534 35.972, 63.397 35.936, 63.729 35.604 C 64.061 35.272, 63.471 35.036, 62.417 35.079 C 61.252 35.127, 61.015 35.364, 61.813 35.683 M 69.813 35.683 C 70.534 35.972, 71.397 35.936, 71.729 35.604 C 72.061 35.272, 71.471 35.036, 70.417 35.079 C 69.252 35.127, 69.015 35.364, 69.813 35.683 M 98.813 35.683 C 99.534 35.972, 100.397 35.936, 100.729 35.604 C 101.061 35.272, 100.471 35.036, 99.417 35.079 C 98.252 35.127, 98.015 35.364, 98.813 35.683 M 55.757 38.250 C 54.462 39.487, 54.099 40, 54.951 39.390 C 55.803 38.779, 57.400 37.781, 58.500 37.170 C 59.600 36.560, 59.963 36.047, 59.306 36.030 C 58.649 36.014, 57.052 37.013, 55.757 38.250 M 73.333 36.667 C 73.700 37.033, 74.300 37.033, 74.667 36.667 C 75.033 36.300, 74.733 36, 74 36 C 73.267 36, 72.967 36.300, 73.333 36.667 M 86.333 36.667 C 86.700 37.033, 87.300 37.033, 87.667 36.667 C 88.033 36.300, 87.733 36, 87 36 C 86.267 36, 85.967 36.300, 86.333 36.667 M 62.813 37.683 C 63.534 37.972, 64.397 37.936, 64.729 37.604 C 65.061 37.272, 64.471 37.036, 63.417 37.079 C 62.252 37.127, 62.015 37.364, 62.813 37.683 M 68.750 37.662 C 69.438 37.940, 70.563 37.940, 71.250 37.662 C 71.938 37.385, 71.375 37.158, 70 37.158 C 68.625 37.158, 68.063 37.385, 68.750 37.662 M 76.333 37.667 C 76.700 38.033, 77.300 38.033, 77.667 37.667 C 78.033 37.300, 77.733 37, 77 37 C 76.267 37, 75.967 37.300, 76.333 37.667 M 83.333 37.667 C 83.700 38.033, 84.300 38.033, 84.667 37.667 C 85.033 37.300, 84.733 37, 84 37 C 83.267 37, 82.967 37.300, 83.333 37.667 M 91.813 37.683 C 92.534 37.972, 93.397 37.936, 93.729 37.604 C 94.061 37.272, 93.471 37.036, 92.417 37.079 C 91.252 37.127, 91.015 37.364, 91.813 37.683 M 96.750 37.662 C 97.438 37.940, 98.563 37.940, 99.250 37.662 C 99.938 37.385, 99.375 37.158, 98 37.158 C 96.625 37.158, 96.063 37.385, 96.750 37.662 M 58.875 38.500 C 58.806 38.775, 58.694 39.525, 58.625 40.167 C 58.556 40.808, 57.875 41.542, 57.111 41.796 C 56.160 42.113, 55.974 41.824, 56.522 40.880 C 56.962 40.121, 56.139 40.578, 54.692 41.895 C 53.245 43.213, 52.306 44.686, 52.604 45.169 C 52.903 45.652, 52.376 48.068, 51.433 50.537 C 49.220 56.332, 50.048 65.242, 53.502 72.785 C 56.344 78.994, 56.439 79.389, 54.845 78.405 C 54.124 77.959, 53.963 78.131, 54.415 78.862 C 54.813 79.506, 55.523 79.795, 55.993 79.505 C 56.463 79.214, 57.799 80.314, 58.963 81.948 C 60.127 83.583, 62.524 85.951, 64.290 87.210 C 67.281 89.344, 68.500 89.501, 82.188 89.522 C 90.267 89.534, 96.683 89.350, 96.447 89.114 C 95.843 88.510, 98.048 86, 99.181 86 C 99.697 86, 99.797 86.563, 99.404 87.250 C 99.012 87.938, 100.110 87.178, 101.845 85.563 C 105.045 82.584, 106.250 80.718, 103.500 83 C 102.428 83.889, 102 83.917, 102 83.098 C 102 82.467, 103.125 81.523, 104.500 81 C 105.875 80.477, 107 79.787, 107 79.466 C 107 79.145, 106.492 79.196, 105.870 79.580 C 105.185 80.004, 104.923 79.732, 105.204 78.889 C 105.458 78.125, 106.154 77.500, 106.750 77.500 C 107.346 77.500, 108.208 77.090, 108.667 76.590 C 109.161 76.050, 108.922 76.015, 108.080 76.504 C 106.974 77.146, 106.836 76.905, 107.455 75.414 C 111.716 65.154, 112.743 58.217, 110.956 51.781 C 108.028 41.237, 98.126 36.575, 87 40.500 C 81.966 42.276, 78.590 42.557, 81 41 C 81.901 40.418, 82.025 40.025, 81.309 40.015 C 80.654 40.007, 79.855 40.426, 79.533 40.946 C 79.181 41.517, 77.327 41.321, 74.871 40.455 C 69.927 38.710, 66.621 38.438, 62 39.396 C 59.439 39.927, 58.902 39.841, 60 39.076 C 61.014 38.369, 61.095 38.026, 60.250 38.015 C 59.563 38.007, 58.944 38.225, 58.875 38.500 M 73.333 38.667 C 73.700 39.033, 74.300 39.033, 74.667 38.667 C 75.033 38.300, 74.733 38, 74 38 C 73.267 38, 72.967 38.300, 73.333 38.667 M 87.333 38.667 C 87.700 39.033, 88.300 39.033, 88.667 38.667 C 89.033 38.300, 88.733 38, 88 38 C 87.267 38, 86.967 38.300, 87.333 38.667 M 108.506 40.006 C 109.504 41.110, 110.538 41.795, 110.803 41.530 C 111.475 40.858, 108.981 38, 107.723 38 C 107.155 38, 107.507 38.903, 108.506 40.006 M 76.333 39.667 C 76.700 40.033, 77.300 40.033, 77.667 39.667 C 78.033 39.300, 77.733 39, 77 39 C 76.267 39, 75.967 39.300, 76.333 39.667 M 84.333 39.667 C 84.700 40.033, 85.300 40.033, 85.667 39.667 C 86.033 39.300, 85.733 39, 85 39 C 84.267 39, 83.967 39.300, 84.333 39.667 M 105 41.393 C 105 41.609, 105.698 42.054, 106.552 42.382 C 107.442 42.723, 107.843 42.555, 107.493 41.989 C 106.906 41.038, 105 40.583, 105 41.393 M 54 43.500 C 53.282 44.365, 53.185 45, 53.771 45 C 54.329 45, 55.045 44.325, 55.362 43.500 C 55.678 42.675, 55.781 42, 55.591 42 C 55.401 42, 54.685 42.675, 54 43.500 M 59.533 46.267 C 54.209 51.591, 53.161 61.054, 56.870 70.310 C 57.490 71.856, 58.356 72.898, 58.796 72.626 C 59.236 72.354, 60.249 72.595, 61.048 73.160 C 62.232 73.999, 62.177 74.085, 60.750 73.626 C 59.788 73.316, 59 73.499, 59 74.031 C 59 75.364, 61.350 75.250, 62.751 73.849 C 63.618 72.982, 63.572 71.911, 62.563 69.498 C 59.112 61.236, 59.852 53.851, 64.633 48.861 C 66.865 46.532, 67.095 45.819, 66.030 44.536 C 64.200 42.331, 63.204 42.596, 59.533 46.267 M 64.500 45 C 64.840 45.550, 65.343 46, 65.618 46 C 65.893 46, 65.840 45.550, 65.500 45 C 65.160 44.450, 64.657 44, 64.382 44 C 64.107 44, 64.160 44.450, 64.500 45 M 112.080 46 C 113.538 49.061, 114 49.628, 114 48.358 C 114 47.821, 113.300 46.509, 112.445 45.441 C 110.978 43.611, 110.958 43.643, 112.080 46 M 110.080 47 C 111.538 50.061, 112 50.628, 112 49.358 C 112 48.821, 111.300 47.509, 110.445 46.441 C 108.978 44.611, 108.958 44.643, 110.080 47 M 58.405 49.155 C 57.962 49.870, 58.130 50.038, 58.845 49.595 C 59.998 48.883, 60.393 48, 59.559 48 C 59.316 48, 58.797 48.520, 58.405 49.155 M 47 50 C 47 50.733, 47.300 51.033, 47.667 50.667 C 48.033 50.300, 48.033 49.700, 47.667 49.333 C 47.300 48.967, 47 49.267, 47 50 M 49 51 C 49 51.733, 49.300 52.033, 49.667 51.667 C 50.033 51.300, 50.033 50.700, 49.667 50.333 C 49.300 49.967, 49 50.267, 49 51 M 114 51 C 114 51.733, 114.300 52.033, 114.667 51.667 C 115.033 51.300, 115.033 50.700, 114.667 50.333 C 114.300 49.967, 114 50.267, 114 51 M 112 52 C 112 52.733, 112.300 53.033, 112.667 52.667 C 113.033 52.300, 113.033 51.700, 112.667 51.333 C 112.300 50.967, 112 51.267, 112 52 M 46.300 58 C 46.300 61.025, 46.487 62.263, 46.716 60.750 C 46.945 59.237, 46.945 56.763, 46.716 55.250 C 46.487 53.737, 46.300 54.975, 46.300 58 M 48.300 58 C 48.300 61.025, 48.487 62.263, 48.716 60.750 C 48.945 59.237, 48.945 56.763, 48.716 55.250 C 48.487 53.737, 48.300 54.975, 48.300 58 M 56.195 56.500 C 56.215 58.150, 56.439 58.704, 56.693 57.731 C 56.947 56.758, 56.930 55.408, 56.656 54.731 C 56.382 54.054, 56.175 54.850, 56.195 56.500 M 113.232 58 C 113.232 59.925, 113.438 60.712, 113.689 59.750 C 113.941 58.788, 113.941 57.212, 113.689 56.250 C 113.438 55.288, 113.232 56.075, 113.232 58 M 115.252 58.500 C 115.263 60.700, 115.468 61.482, 115.707 60.238 C 115.946 58.994, 115.937 57.194, 115.687 56.238 C 115.437 55.282, 115.241 56.300, 115.252 58.500 M 58.195 59.500 C 58.215 61.150, 58.439 61.704, 58.693 60.731 C 58.947 59.758, 58.930 58.408, 58.656 57.731 C 58.382 57.054, 58.175 57.850, 58.195 59.500 M 56.158 63 C 56.158 64.375, 56.385 64.938, 56.662 64.250 C 56.940 63.563, 56.940 62.438, 56.662 61.750 C 56.385 61.063, 56.158 61.625, 56.158 63 M 112.079 65.583 C 112.127 66.748, 112.364 66.985, 112.683 66.188 C 112.972 65.466, 112.936 64.603, 112.604 64.271 C 112.272 63.939, 112.036 64.529, 112.079 65.583 M 114.079 65.583 C 114.127 66.748, 114.364 66.985, 114.683 66.188 C 114.972 65.466, 114.936 64.603, 114.604 64.271 C 114.272 63.939, 114.036 64.529, 114.079 65.583 M 47.079 66.583 C 47.127 67.748, 47.364 67.985, 47.683 67.188 C 47.972 66.466, 47.936 65.603, 47.604 65.271 C 47.272 64.939, 47.036 65.529, 47.079 66.583 M 49.079 66.583 C 49.127 67.748, 49.364 67.985, 49.683 67.188 C 49.972 66.466, 49.936 65.603, 49.604 65.271 C 49.272 64.939, 49.036 65.529, 49.079 66.583 M 59 66 C 59 66.733, 59.300 67.033, 59.667 66.667 C 60.033 66.300, 60.033 65.700, 59.667 65.333 C 59.300 64.967, 59 65.267, 59 66 M 57 68 C 57 68.733, 57.300 69.033, 57.667 68.667 C 58.033 68.300, 58.033 67.700, 57.667 67.333 C 57.300 66.967, 57 67.267, 57 68 M 111 69 C 111 69.733, 111.300 70.033, 111.667 69.667 C 112.033 69.300, 112.033 68.700, 111.667 68.333 C 111.300 67.967, 111 68.267, 111 69 M 50 70 C 50 70.733, 50.300 71.033, 50.667 70.667 C 51.033 70.300, 51.033 69.700, 50.667 69.333 C 50.300 68.967, 50 69.267, 50 70 M 113 70 C 113 70.733, 113.300 71.033, 113.667 70.667 C 114.033 70.300, 114.033 69.700, 113.667 69.333 C 113.300 68.967, 113 69.267, 113 70 M 48 71 C 48 71.733, 48.300 72.033, 48.667 71.667 C 49.033 71.300, 49.033 70.700, 48.667 70.333 C 48.300 69.967, 48 70.267, 48 71 M 110 72 C 110 72.733, 110.300 73.033, 110.667 72.667 C 111.033 72.300, 111.033 71.700, 110.667 71.333 C 110.300 70.967, 110 71.267, 110 72 M 111 75 C 111 75.733, 111.300 76.033, 111.667 75.667 C 112.033 75.300, 112.033 74.700, 111.667 74.333 C 111.300 73.967, 111 74.267, 111 75 M 109 79 C 108.411 80.100, 108.155 81, 108.430 81 C 108.705 81, 109.411 80.100, 110 79 C 110.589 77.900, 110.845 77, 110.570 77 C 110.295 77, 109.589 77.900, 109 79 M 59.500 85 C 61.648 87.200, 63.592 89, 63.819 89 C 64.661 89, 57.464 81.166, 56.547 81.085 C 56.023 81.038, 57.352 82.800, 59.500 85 M 100.405 85.155 C 99.962 85.870, 100.130 86.038, 100.845 85.595 C 101.998 84.883, 102.393 84, 101.559 84 C 101.316 84, 100.797 84.520, 100.405 85.155 M 57 86.378 C 57 86.585, 57.788 87.373, 58.750 88.128 C 60.336 89.371, 60.371 89.336, 59.128 87.750 C 57.821 86.084, 57 85.555, 57 86.378 M 65.733 90.124 C 66.412 90.808, 67.219 91.115, 67.526 90.807 C 67.834 90.499, 67.279 89.940, 66.293 89.564 C 64.868 89.022, 64.753 89.136, 65.733 90.124 M 63.441 91.445 C 64.509 92.300, 65.821 93, 66.358 93 C 67.628 93, 67.061 92.538, 64 91.080 C 61.643 89.958, 61.611 89.978, 63.441 91.445 M 83.500 91 C 84.600 91.473, 86.400 91.846, 87.500 91.830 C 89.108 91.806, 89.010 91.644, 87 91 C 83.581 89.905, 80.952 89.905, 83.500 91 M 69.813 91.683 C 70.534 91.972, 71.397 91.936, 71.729 91.604 C 72.061 91.272, 71.471 91.036, 70.417 91.079 C 69.252 91.127, 69.015 91.364, 69.813 91.683 M 73.813 91.683 C 74.534 91.972, 75.397 91.936, 75.729 91.604 C 76.061 91.272, 75.471 91.036, 74.417 91.079 C 73.252 91.127, 73.015 91.364, 73.813 91.683 M 90.813 91.683 C 91.534 91.972, 92.397 91.936, 92.729 91.604 C 93.061 91.272, 92.471 91.036, 91.417 91.079 C 90.252 91.127, 90.015 91.364, 90.813 91.683 M 68.813 93.683 C 69.534 93.972, 70.397 93.936, 70.729 93.604 C 71.061 93.272, 70.471 93.036, 69.417 93.079 C 68.252 93.127, 68.015 93.364, 68.813 93.683 M 73.750 93.662 C 74.438 93.940, 75.563 93.940, 76.250 93.662 C 76.938 93.385, 76.375 93.158, 75 93.158 C 73.625 93.158, 73.063 93.385, 73.750 93.662 M 85.813 93.683 C 86.534 93.972, 87.397 93.936, 87.729 93.604 C 88.061 93.272, 87.471 93.036, 86.417 93.079 C 85.252 93.127, 85.015 93.364, 85.813 93.683 M 90.750 93.662 C 91.438 93.940, 92.563 93.940, 93.250 93.662 C 93.938 93.385, 93.375 93.158, 92 93.158 C 90.625 93.158, 90.063 93.385, 90.750 93.662 M 26.500 103.167 C 23.711 104.709, 20 108.173, 20 109.233 C 20 109.720, 20.520 109.797, 21.155 109.405 C 21.876 108.959, 22.037 109.131, 21.585 109.862 C 21.187 110.506, 20.442 110.773, 19.929 110.456 C 18.350 109.480, 16.800 115.239, 17.273 120.324 C 17.983 127.968, 23.268 133.576, 31.142 135.039 C 33.539 135.484, 60.475 135.609, 91 135.317 C 147.149 134.780, 150.667 134.521, 146.270 131.235 C 144.144 129.647, 31.539 129.445, 32.519 131.031 C 32.849 131.564, 32.079 131.993, 30.809 131.985 C 29.241 131.974, 28.910 131.709, 29.778 131.158 C 30.699 130.574, 30.279 129.969, 28.278 128.999 C 26.750 128.258, 25.206 127.715, 24.846 127.794 C 24.486 127.872, 23.586 127.189, 22.846 126.276 C 21.712 124.878, 21.717 124.747, 22.880 125.447 C 23.839 126.025, 24.106 125.855, 23.755 124.889 C 23.477 124.125, 22.815 123.589, 22.283 123.697 C 21.275 123.903, 22.185 116.149, 23.587 112.586 C 24.169 111.106, 24.018 110.856, 22.920 111.483 C 21.746 112.153, 21.725 112.052, 22.800 110.897 C 23.515 110.129, 24.415 109.484, 24.800 109.465 C 25.185 109.445, 26.582 108.829, 27.905 108.096 C 29.841 107.024, 41.410 106.797, 87.122 106.935 C 125.817 107.051, 144.570 106.765, 145.930 106.038 C 148.219 104.812, 147.668 101.992, 145.143 102.015 C 143.717 102.029, 143.698 102.159, 145 103 C 145.977 103.631, 125.913 103.929, 87.500 103.853 C 55.050 103.789, 30.075 103.405, 32 103 L 35.500 102.263 32 102.162 C 30.075 102.106, 27.600 102.559, 26.500 103.167 M 38.750 102.706 C 39.987 102.944, 42.013 102.944, 43.250 102.706 C 44.487 102.467, 43.475 102.272, 41 102.272 C 38.525 102.272, 37.513 102.467, 38.750 102.706 M 70.750 102.749 C 82.438 102.909, 101.563 102.909, 113.250 102.749 C 124.938 102.589, 115.375 102.458, 92 102.458 C 68.625 102.458, 59.063 102.589, 70.750 102.749 M 24.559 105.532 C 23.491 106.339, 23.041 106.986, 23.559 106.968 C 24.076 106.951, 25.374 106.276, 26.441 105.468 C 27.509 104.661, 27.959 104.014, 27.441 104.032 C 26.924 104.049, 25.626 104.724, 24.559 105.532 M 27.441 106.555 C 25.531 108.085, 25.532 108.096, 27.500 107.190 C 28.600 106.684, 30.175 106.020, 31 105.714 C 32.296 105.234, 32.288 105.147, 30.941 105.079 C 30.084 105.036, 28.509 105.700, 27.441 106.555 M 34.200 110.200 C 32.607 111.793, 32.607 125.207, 34.200 126.800 C 35.103 127.703, 48.482 128, 88.267 128 L 141.135 128 140.317 125.750 C 139.868 124.513, 139.500 121.250, 139.500 118.500 C 139.500 115.750, 139.868 112.487, 140.317 111.250 L 141.135 109 88.267 109 C 48.482 109, 35.103 109.297, 34.200 110.200 M 27.171 112.318 C 24.119 115.566, 24.197 121.897, 27.324 124.835 C 28.602 126.036, 29.851 126.815, 30.099 126.567 C 30.632 126.034, 30.282 110.949, 29.724 110.391 C 29.514 110.180, 28.364 111.048, 27.171 112.318 M 61.750 110.749 C 76.187 110.905, 99.812 110.905, 114.250 110.749 C 128.687 110.593, 116.875 110.465, 88 110.465 C 59.125 110.465, 47.312 110.593, 61.750 110.749 M 34.432 118.747 L 34.500 126.500 87.250 126.513 L 140 126.527 87.542 126.255 L 35.084 125.982 34.724 118.488 L 34.365 110.993 34.432 118.747 M 19 113 C 19 113.733, 19.300 114.033, 19.667 113.667 C 20.033 113.300, 20.033 112.700, 19.667 112.333 C 19.300 111.967, 19 112.267, 19 113 M 27.405 113.155 C 26.962 113.870, 27.130 114.038, 27.845 113.595 C 28.480 113.203, 29 112.684, 29 112.441 C 29 111.607, 28.117 112.002, 27.405 113.155 M 138 113 C 138 113.733, 138.300 114.033, 138.667 113.667 C 139.033 113.300, 139.033 112.700, 138.667 112.333 C 138.300 111.967, 138 112.267, 138 113 M 37.652 113.750 C 37.396 114.162, 43.332 114.383, 50.843 114.241 C 76.046 113.762, 78.649 113.399, 58.309 113.199 C 47.204 113.089, 37.908 113.338, 37.652 113.750 M 109 113.740 C 130.592 113.985, 133.648 114.217, 134.750 115.700 C 135.438 116.625, 136 116.936, 136 116.391 C 136 113.300, 133.450 113.001, 109.050 113.231 L 84.500 113.463 109 113.740 M 26.252 118.500 C 26.263 120.700, 26.468 121.482, 26.707 120.238 C 26.946 118.994, 26.937 117.194, 26.687 116.238 C 26.437 115.282, 26.241 116.300, 26.252 118.500 M 38.543 115.931 C 38.226 116.443, 38.354 117.101, 38.826 117.392 C 40.171 118.224, 79.093 118.250, 79.836 117.420 C 80.201 117.013, 79.938 117.003, 79.250 117.399 C 78.477 117.844, 78 117.523, 78 116.559 C 78 115.200, 75.500 115, 58.559 115 C 47.639 115, 38.866 115.408, 38.543 115.931 M 85 116.559 C 85 117.523, 84.523 117.844, 83.750 117.399 C 83.063 117.003, 82.778 116.992, 83.118 117.374 C 83.458 117.757, 95.199 118.166, 109.209 118.285 C 133.036 118.486, 134.653 118.387, 134.224 116.750 C 133.804 115.144, 131.765 115, 109.383 115 C 87.966 115, 85 115.190, 85 116.559 M 137.252 118.500 C 137.263 120.700, 137.468 121.482, 137.707 120.238 C 137.946 118.994, 137.937 117.194, 137.687 116.238 C 137.437 115.282, 137.241 116.300, 137.252 118.500 M 18.195 118.500 C 18.215 120.150, 18.439 120.704, 18.693 119.731 C 18.947 118.758, 18.930 117.408, 18.656 116.731 C 18.382 116.054, 18.175 116.850, 18.195 118.500 M 20.232 119 C 20.232 120.925, 20.438 121.713, 20.689 120.750 C 20.941 119.787, 20.941 118.213, 20.689 117.250 C 20.438 116.287, 20.232 117.075, 20.232 119 M 64.582 119.750 C 39.157 120.029, 35.951 120.436, 36.030 123.372 C 36.047 123.993, 36.519 123.713, 37.080 122.750 C 38.001 121.169, 40.346 120.987, 61.300 120.862 C 74.060 120.787, 95.525 120.421, 109 120.050 L 133.500 119.374 112 119.420 C 100.175 119.444, 78.837 119.593, 64.582 119.750 M 38.250 123.250 C 38.854 125.063, 89.146 125.063, 89.750 123.250 C 90.076 122.271, 84.489 122, 64 122 C 43.511 122, 37.924 122.271, 38.250 123.250 M 91 123 C 91 123.733, 91.300 124.033, 91.667 123.667 C 92.033 123.300, 92.033 122.700, 91.667 122.333 C 91.300 121.967, 91 122.267, 91 123 M 19 124 C 19 124.733, 19.300 125.033, 19.667 124.667 C 20.033 124.300, 20.033 123.700, 19.667 123.333 C 19.300 122.967, 19 123.267, 19 124 M 27.500 124 C 27.840 124.550, 28.343 125, 28.618 125 C 28.893 125, 28.840 124.550, 28.500 124 C 28.160 123.450, 27.657 123, 27.382 123 C 27.107 123, 27.160 123.450, 27.500 124 M 138 124 C 138 124.733, 138.300 125.033, 138.667 124.667 C 139.033 124.300, 139.033 123.700, 138.667 123.333 C 138.300 122.967, 138 123.267, 138 124 M 20.500 127 C 20.840 127.550, 21.343 128, 21.618 128 C 21.893 128, 21.840 127.550, 21.500 127 C 21.160 126.450, 20.657 126, 20.382 126 C 20.107 126, 20.160 126.450, 20.500 127 M 25 128.378 C 25 128.585, 25.788 129.373, 26.750 130.128 C 28.336 131.371, 28.371 131.336, 27.128 129.750 C 25.821 128.084, 25 127.555, 25 128.378 M 22.500 130 C 22.840 130.550, 23.343 131, 23.618 131 C 23.893 131, 23.840 130.550, 23.500 130 C 23.160 129.450, 22.657 129, 22.382 129 C 22.107 129, 22.160 129.450, 22.500 130 M 137.250 131.689 C 138.213 131.941, 139.787 131.941, 140.750 131.689 C 141.713 131.438, 140.925 131.232, 139 131.232 C 137.075 131.232, 136.287 131.438, 137.250 131.689 M 144.211 132.399 C 144.920 133.169, 145.658 133.649, 145.850 133.466 C 146.443 132.902, 144.940 131, 143.902 131 C 143.362 131, 143.501 131.630, 144.211 132.399 M 29.750 133.662 C 30.438 133.940, 31.563 133.940, 32.250 133.662 C 32.938 133.385, 32.375 133.158, 31 133.158 C 29.625 133.158, 29.063 133.385, 29.750 133.662" stroke="none" fill="#fcf6e2" fill-rule="evenodd"/></svg>