<svg version="1.1" id="Layer_1" xmlns="http://www.w3.org/2000/svg" xmlns:xlink="http://www.w3.org/1999/xlink" x="0px" y="0px"
	 width="100%" viewBox="0 0 918 844" enable-background="new 0 0 918 844" xml:space="preserve">
<path fill="#607673" opacity="1.000000" stroke="none" 
	d="
M531.000000,845.000000 
	C354.000000,845.000000 177.500000,845.000000 1.000000,845.000000 
	C1.000000,563.666687 1.000000,282.333344 1.000000,1.000000 
	C307.000000,1.000000 613.000000,1.000000 919.000000,1.000000 
	C919.000000,282.333344 919.000000,563.666687 919.000000,845.000000 
	C789.833313,845.000000 660.666687,845.000000 531.000000,845.000000 
M811.665405,598.043762 
	C813.496582,598.011841 815.332031,598.048340 817.158203,597.935364 
	C822.948853,597.577209 827.472717,593.192322 828.035950,587.460266 
	C828.777771,579.910095 823.581787,574.723450 815.005554,574.712585 
	C773.508728,574.659973 732.011963,574.652405 690.515137,574.649719 
	C576.524109,574.642334 462.533081,574.625183 348.542053,574.653076 
	C293.047516,574.666626 237.552429,574.656677 182.058762,574.910828 
	C166.669769,574.981262 152.449188,579.930847 139.947281,588.761414 
	C110.010399,609.907043 96.380539,638.945923 98.838638,675.610474 
	C101.912743,721.463257 140.585190,758.565552 186.467880,759.302612 
	C201.796722,759.548950 217.130829,759.527405 232.462540,759.526062 
	C330.287628,759.517395 428.112732,759.473572 525.937805,759.454285 
	C622.096313,759.435364 718.254761,759.438049 814.413269,759.410522 
	C822.584412,759.408142 827.529785,755.399048 828.001343,748.605225 
	C828.505066,741.348328 824.149841,736.739868 815.837280,734.936768 
	C813.662170,731.136108 812.138550,726.690674 809.161987,723.683228 
	C804.495728,718.968567 798.848389,715.224854 793.682739,711.122437 
	C795.716370,707.849670 799.344238,704.569031 798.829407,702.181885 
	C798.208130,699.301086 794.005798,697.245361 791.473755,694.712341 
	C786.967957,690.204712 787.328918,686.424133 792.507690,682.581360 
	C797.451599,678.912842 797.610413,675.089661 793.425476,670.685730 
	C792.196777,669.392700 791.673401,667.293579 791.180420,665.468445 
	C790.394592,662.558899 789.828125,659.582275 789.332642,656.606689 
	C789.164368,655.595886 789.079468,654.102661 789.655884,653.509521 
	C794.959290,648.051575 793.907166,641.302246 793.615967,634.752441 
	C792.980896,620.468323 795.836731,607.875977 809.557251,600.225952 
	C810.180725,599.878357 810.445190,598.886902 811.665405,598.043762 
M489.321075,118.810661 
	C477.263275,128.408752 467.425354,139.982071 459.712433,153.293961 
	C458.776825,152.675369 458.372437,152.560196 458.279633,152.323074 
	C457.370850,150.001099 456.531189,147.652222 455.639679,145.323334 
	C449.255951,128.647598 440.094391,113.659187 428.019318,100.514435 
	C422.408020,94.406029 414.212402,93.921089 408.934265,99.018372 
	C403.656494,104.115311 404.357727,111.167259 409.830994,117.706207 
	C415.467621,124.440277 421.136169,131.336838 425.508148,138.903381 
	C436.936066,158.681641 440.947876,180.555481 441.791931,203.124634 
	C441.831299,204.176910 441.445709,205.245071 441.125885,207.052963 
	C434.737701,204.730820 428.937805,202.237183 422.917145,200.515442 
	C410.962860,197.096817 399.054749,192.482071 386.832031,191.217148 
	C335.733246,185.929001 291.110474,215.658417 269.424377,260.519928 
	C254.966965,290.427704 252.096710,322.097534 256.864258,354.645447 
	C265.294800,412.200500 289.962341,461.403473 332.886230,501.016724 
	C363.196991,528.989685 397.731628,541.981628 438.788544,528.880005 
	C450.588867,525.114502 461.730255,525.376404 473.424347,529.124939 
	C495.237823,536.117188 517.030518,535.802307 538.384216,526.833618 
	C556.019165,519.426941 571.000427,508.107483 584.366028,494.675934 
	C619.788574,459.078522 641.942139,416.339050 651.809631,367.216736 
	C658.087158,335.965698 658.022705,304.798187 646.889954,274.596497 
	C631.303589,232.312668 602.693542,203.586029 557.993591,192.586929 
	C555.846313,192.058548 553.683228,191.594193 551.191956,191.023071 
	C554.567749,186.896927 557.604675,183.371994 560.438477,179.690689 
	C577.370667,157.694321 585.182007,132.800491 583.828918,105.081100 
	C583.270020,93.630623 577.809692,88.634995 567.203796,89.318275 
	C538.477417,91.168922 512.596558,100.549194 489.321075,118.810661 
z"/>
<path fill="#FCF4DF" opacity="1.000000" stroke="none" 
	d="
M489.597168,118.585724 
	C512.596558,100.549194 538.477417,91.168922 567.203796,89.318275 
	C577.809692,88.634995 583.270020,93.630623 583.828918,105.081100 
	C585.182007,132.800491 577.370667,157.694321 560.438477,179.690689 
	C557.604675,183.371994 554.567749,186.896927 551.191956,191.023071 
	C553.683228,191.594193 555.846313,192.058548 557.993591,192.586929 
	C602.693542,203.586029 631.303589,232.312668 646.889954,274.596497 
	C658.022705,304.798187 658.087158,335.965698 651.809631,367.216736 
	C641.942139,416.339050 619.788574,459.078522 584.366028,494.675934 
	C571.000427,508.107483 556.019165,519.426941 538.384216,526.833618 
	C517.030518,535.802307 495.237823,536.117188 473.424347,529.124939 
	C461.730255,525.376404 450.588867,525.114502 438.788544,528.880005 
	C397.731628,541.981628 363.196991,528.989685 332.886230,501.016724 
	C289.962341,461.403473 265.294800,412.200500 256.864258,354.645447 
	C252.096710,322.097534 254.966965,290.427704 269.424377,260.519928 
	C291.110474,215.658417 335.733246,185.929001 386.832031,191.217148 
	C399.054749,192.482071 410.962860,197.096817 422.917145,200.515442 
	C428.937805,202.237183 434.737701,204.730820 441.125885,207.052963 
	C441.445709,205.245071 441.831299,204.176910 441.791931,203.124634 
	C440.947876,180.555481 436.936066,158.681641 425.508148,138.903381 
	C421.136169,131.336838 415.467621,124.440277 409.830994,117.706207 
	C404.357727,111.167259 403.656494,104.115311 408.934265,99.018372 
	C414.212402,93.921089 422.408020,94.406029 428.019318,100.514435 
	C440.094391,113.659187 449.255951,128.647598 455.639679,145.323334 
	C456.531189,147.652222 457.370850,150.001099 458.279633,152.323074 
	C458.372437,152.560196 458.776825,152.675369 459.712433,153.293961 
	C467.425354,139.982071 477.263275,128.408752 489.597168,118.585724 
M519.738953,216.057861 
	C510.082947,219.151779 500.327545,221.969635 490.794006,225.403534 
	C476.037781,230.718628 460.956818,234.830460 445.342377,231.770035 
	C433.508484,229.450638 421.722870,225.951263 410.533112,221.444275 
	C367.168488,203.977921 323.986115,222.108536 301.383026,253.744995 
	C286.411530,274.699829 279.171356,298.271790 279.276215,323.580566 
	C279.540253,387.299469 304.427856,440.679596 350.354919,484.233917 
	C375.573456,508.149658 404.961029,516.748474 438.631836,503.836853 
	C450.606873,499.244843 462.175476,499.503967 474.102814,504.101929 
	C501.649445,514.721069 527.231018,510.224518 550.323669,492.386322 
	C559.241638,485.497467 567.913391,477.954132 575.320312,469.502228 
	C609.241028,430.795532 628.745667,385.719696 631.418945,334.152496 
	C632.938110,304.849030 626.766541,276.858215 608.713989,253.002060 
	C586.690979,223.898926 557.459900,210.462418 519.738953,216.057861 
M473.033813,205.655029 
	C483.717468,201.535812 494.731171,198.103348 505.018311,193.159088 
	C528.874390,181.693237 546.753784,164.282227 555.227539,138.551483 
	C557.741272,130.918472 559.565308,123.060173 558.952698,114.846848 
	C515.101501,116.477303 461.351379,170.693298 467.363678,206.737656 
	C468.987610,206.444351 470.612488,206.150864 473.033813,205.655029 
z"/>
<path fill="#FDF5E0" opacity="1.000000" stroke="none" 
	d="
M815.864868,735.763062 
	C824.149841,736.739868 828.505066,741.348328 828.001343,748.605225 
	C827.529785,755.399048 822.584412,759.408142 814.413269,759.410522 
	C718.254761,759.438049 622.096313,759.435364 525.937805,759.454285 
	C428.112732,759.473572 330.287628,759.517395 232.462540,759.526062 
	C217.130829,759.527405 201.796722,759.548950 186.467880,759.302612 
	C140.585190,758.565552 101.912743,721.463257 98.838638,675.610474 
	C96.380539,638.945923 110.010399,609.907043 139.947281,588.761414 
	C152.449188,579.930847 166.669769,574.981262 182.058762,574.910828 
	C237.552429,574.656677 293.047516,574.666626 348.542053,574.653076 
	C462.533081,574.625183 576.524109,574.642334 690.515137,574.649719 
	C732.011963,574.652405 773.508728,574.659973 815.005554,574.712585 
	C823.581787,574.723450 828.777771,579.910095 828.035950,587.460266 
	C827.472717,593.192322 822.948853,597.577209 817.158203,597.935364 
	C815.332031,598.048340 813.496582,598.011841 810.864868,598.050659 
	C601.928284,598.024170 393.792267,597.990112 185.656250,597.967896 
	C183.826279,597.967712 181.962494,597.930298 180.171356,598.239563 
	C151.650177,603.164551 132.539352,619.442688 124.755081,647.188843 
	C116.990433,674.865112 124.016403,699.338440 145.303680,719.013733 
	C161.027145,733.546631 180.226578,737.512024 201.465775,735.800049 
	C203.428024,735.892090 204.926971,735.924866 206.425919,735.924866 
	C371.309418,735.930603 536.192932,735.942749 701.076416,735.929810 
	C733.049988,735.927246 765.023499,735.826538 797.430542,735.843750 
	C799.910339,735.856567 801.956543,735.796814 804.366943,735.807556 
	C806.459106,735.831787 808.187134,735.785583 810.335938,735.816895 
	C812.459412,735.850647 814.162170,735.806885 815.864868,735.763062 
z"/>
<path fill="#5D7371" opacity="1.000000" stroke="none" 
	d="
M201.002472,735.725586 
	C180.226578,737.512024 161.027145,733.546631 145.303680,719.013733 
	C124.016403,699.338440 116.990433,674.865112 124.755081,647.188843 
	C132.539352,619.442688 151.650177,603.164551 180.171356,598.239563 
	C181.962494,597.930298 183.826279,597.967712 185.656250,597.967896 
	C393.792267,597.990112 601.928284,598.024170 810.470581,598.126465 
	C810.445190,598.886902 810.180725,599.878357 809.557251,600.225952 
	C795.836731,607.875977 792.980896,620.468323 793.615967,634.752441 
	C793.907166,641.302246 794.959290,648.051575 789.655884,653.509521 
	C789.079468,654.102661 789.164368,655.595886 789.332642,656.606689 
	C789.828125,659.582275 790.394592,662.558899 791.180420,665.468445 
	C791.673401,667.293579 792.196777,669.392700 793.425476,670.685730 
	C797.610413,675.089661 797.451599,678.912842 792.507690,682.581360 
	C787.328918,686.424133 786.967957,690.204712 791.473755,694.712341 
	C794.005798,697.245361 798.208130,699.301086 798.829407,702.181885 
	C799.344238,704.569031 795.716370,707.849670 793.682739,711.122437 
	C798.848389,715.224854 804.495728,718.968567 809.161987,723.683228 
	C812.138550,726.690674 813.662170,731.136108 815.851074,735.349976 
	C814.162170,735.806885 812.459412,735.850647 810.204468,735.470825 
	C807.389648,732.169922 805.498596,732.335388 804.002808,735.737122 
	C801.956543,735.796814 799.910339,735.856567 797.333252,735.515503 
	C795.966675,734.415710 795.237671,733.461792 794.277588,733.059692 
	C788.678162,730.714478 787.860168,728.515686 790.567383,722.902222 
	C791.482117,721.005493 792.209839,719.018555 792.974976,716.711487 
	C785.102600,702.244873 780.946838,687.169800 781.322327,670.976562 
	C785.457825,670.766663 786.856567,668.392700 786.823120,665.059082 
	C786.785828,661.355408 784.583801,659.453430 780.958496,658.560303 
	C781.650269,643.615540 786.277344,630.187073 792.922180,616.659607 
	C788.976624,616.659607 785.673279,616.659851 782.369873,616.659607 
	C632.222961,616.650452 482.076080,616.646301 331.929169,616.628479 
	C290.934692,616.623596 249.940216,616.567688 208.945740,616.556152 
	C195.185593,616.552246 189.009628,622.612305 188.976593,636.204102 
	C188.925552,657.201355 189.042358,678.199463 188.884460,699.195679 
	C188.820969,707.636475 192.151016,713.589355 200.089447,717.186157 
	C201.836380,723.905640 203.014114,724.603760 209.808853,724.480591 
	C211.318039,724.453186 212.850616,725.716248 214.372406,726.385132 
	C213.603531,727.506226 213.079895,729.106384 212.015930,729.650940 
	C209.643646,730.865295 206.905075,731.355591 204.506699,732.530701 
	C203.143967,733.198303 202.158051,734.635132 201.002472,735.725586 
M144.288422,647.922546 
	C133.141754,678.479980 153.075317,707.910950 168.731750,712.007141 
	C168.731750,681.685303 168.731750,651.341370 168.731750,620.385010 
	C156.655273,626.351624 149.233597,635.519226 144.288422,647.922546 
z"/>
<path fill="#607673" opacity="1.000000" stroke="none" 
	d="
M520.163208,215.993011 
	C557.459900,210.462418 586.690979,223.898926 608.713989,253.002060 
	C626.766541,276.858215 632.938110,304.849030 631.418945,334.152496 
	C628.745667,385.719696 609.241028,430.795532 575.320312,469.502228 
	C567.913391,477.954132 559.241638,485.497467 550.323669,492.386322 
	C527.231018,510.224518 501.649445,514.721069 474.102814,504.101929 
	C462.175476,499.503967 450.606873,499.244843 438.631836,503.836853 
	C404.961029,516.748474 375.573456,508.149658 350.354919,484.233917 
	C304.427856,440.679596 279.540253,387.299469 279.276215,323.580566 
	C279.171356,298.271790 286.411530,274.699829 301.383026,253.744995 
	C323.986115,222.108536 367.168488,203.977921 410.533112,221.444275 
	C421.722870,225.951263 433.508484,229.450638 445.342377,231.770035 
	C460.956818,234.830460 476.037781,230.718628 490.794006,225.403534 
	C500.327545,221.969635 510.082947,219.151779 520.163208,215.993011 
M333.819366,415.783234 
	C340.448669,420.172363 346.401337,420.120850 351.097717,415.633759 
	C355.609558,411.322998 356.541473,404.448883 353.260040,398.651031 
	C340.250763,375.665253 335.036743,350.918304 336.982574,324.703735 
	C338.689056,301.713684 347.043488,282.192902 366.951752,268.714233 
	C369.781647,266.798279 371.958710,262.920197 372.944611,259.517609 
	C374.345703,254.682098 372.212128,250.238571 367.890259,247.454758 
	C362.298920,243.853195 356.695160,244.950134 351.498810,248.446930 
	C333.745819,260.393463 321.100464,276.382690 315.183472,297.015564 
	C305.361664,331.264740 309.493317,364.573547 323.524597,396.886230 
	C326.281830,403.235870 329.993958,409.170898 333.819366,415.783234 
z"/>
<path fill="#607673" opacity="1.000000" stroke="none" 
	d="
M472.635559,205.756195 
	C470.612488,206.150864 468.987610,206.444351 467.363678,206.737656 
	C461.351379,170.693298 515.101501,116.477303 558.952698,114.846848 
	C559.565308,123.060173 557.741272,130.918472 555.227539,138.551483 
	C546.753784,164.282227 528.874390,181.693237 505.018311,193.159088 
	C494.731171,198.103348 483.717468,201.535812 472.635559,205.756195 
z"/>
<path fill="#5B716F" opacity="1.000000" stroke="none" 
	d="
M793.023010,717.072815 
	C792.209839,719.018555 791.482117,721.005493 790.567383,722.902222 
	C787.860168,728.515686 788.678162,730.714478 794.277588,733.059692 
	C795.237671,733.461792 795.966675,734.415710 796.899780,735.442932 
	C765.023499,735.826538 733.049988,735.927246 701.076416,735.929810 
	C536.192932,735.942749 371.309418,735.930603 206.425919,735.924866 
	C204.926971,735.924866 203.428024,735.892090 201.465759,735.800049 
	C202.158051,734.635132 203.143967,733.198303 204.506699,732.530701 
	C206.905075,731.355591 209.643646,730.865295 212.015930,729.650940 
	C213.079895,729.106384 213.603531,727.506226 214.372406,726.385132 
	C212.850616,725.716248 211.318039,724.453186 209.808853,724.480591 
	C203.014114,724.603760 201.836380,723.905640 200.554779,717.196167 
	C205.815994,716.919189 210.642822,717.088684 215.469742,717.091187 
	C250.609253,717.109314 285.748779,717.090820 320.888275,717.089355 
	C478.266510,717.082886 635.644775,717.078186 793.023010,717.072815 
M220.802444,723.434509 
	C220.284286,725.856079 219.766129,728.277649 219.215775,730.849731 
	C221.839615,732.105774 225.008484,734.962769 226.278488,730.217224 
	C227.068604,727.264771 226.256149,723.287170 220.802444,723.434509 
z"/>
<path fill="#5B716F" opacity="1.000000" stroke="none" 
	d="
M804.366943,735.807556 
	C805.498596,732.335388 807.389648,732.169922 809.783691,735.393250 
	C808.187134,735.785583 806.459106,735.831787 804.366943,735.807556 
z"/>
<path fill="#FDF5E1" opacity="1.000000" stroke="none" 
	d="
M792.974976,716.711487 
	C635.644775,717.078186 478.266510,717.082886 320.888275,717.089355 
	C285.748779,717.090820 250.609253,717.109314 215.469742,717.091187 
	C210.642822,717.088684 205.815994,716.919189 200.523788,716.817017 
	C192.151016,713.589355 188.820969,707.636475 188.884460,699.195679 
	C189.042358,678.199463 188.925552,657.201355 188.976593,636.204102 
	C189.009628,622.612305 195.185593,616.552246 208.945740,616.556152 
	C249.940216,616.567688 290.934692,616.623596 331.929169,616.628479 
	C482.076080,616.646301 632.222961,616.650452 782.369873,616.659607 
	C785.673279,616.659851 788.976624,616.659607 792.922180,616.659607 
	C786.277344,630.187073 781.650269,643.615540 780.853027,659.011108 
	C780.846741,663.600281 780.892334,667.299377 780.937866,670.998474 
	C780.946838,687.169800 785.102600,702.244873 792.974976,716.711487 
M473.499878,683.190125 
	C390.678131,683.170349 307.856384,683.149597 225.034653,683.138672 
	C223.538498,683.138489 222.006454,683.071045 220.552780,683.352905 
	C215.839493,684.266663 212.712097,688.297668 212.868484,693.040283 
	C213.019211,697.610840 216.636810,701.461304 221.374512,701.981140 
	C222.859512,702.144104 224.370789,702.096497 225.870026,702.096863 
	C316.857574,702.116638 407.845154,702.134155 498.832703,702.140991 
	C505.723419,702.141541 509.767975,698.519470 509.638489,692.566956 
	C509.516235,686.947449 505.323151,683.192749 498.996521,683.166565 
	C490.831177,683.132690 482.665497,683.181702 473.499878,683.190125 
M569.500000,664.038208 
	C628.499207,664.033142 687.498413,664.036621 746.497559,663.981445 
	C748.265137,663.979797 750.199219,663.714539 751.767212,662.967224 
	C755.947815,660.974609 757.965332,656.330872 756.844666,652.090515 
	C755.625549,647.477600 751.727417,645.024597 745.604309,645.024963 
	C659.272461,645.030884 572.940613,645.037292 486.608795,645.045410 
	C485.275665,645.045532 483.934357,644.977905 482.610870,645.097412 
	C477.173584,645.588196 473.553070,649.972534 474.054291,655.383362 
	C474.544189,660.671875 478.624512,663.971680 485.001556,663.982239 
	C512.834290,664.028198 540.667175,664.018005 569.500000,664.038208 
M241.500107,664.000732 
	C304.991150,663.987549 368.482178,663.981689 431.973206,663.951050 
	C439.118195,663.947632 443.458496,660.229553 443.431915,654.316956 
	C443.406097,648.574280 439.413757,644.963745 432.850281,644.963989 
	C363.027100,644.967163 293.203918,644.989746 223.380737,645.030701 
	C217.018204,645.034424 212.965302,648.807556 212.934555,654.547119 
	C212.905243,660.019409 216.802765,663.788940 223.003891,663.956238 
	C228.832214,664.113464 234.667831,664.000244 241.500107,664.000732 
z"/>
<path fill="#FCF4E1" opacity="1.000000" stroke="none" 
	d="
M144.446777,647.567322 
	C149.233597,635.519226 156.655273,626.351624 168.731750,620.385010 
	C168.731750,651.341370 168.731750,681.685303 168.731750,712.007141 
	C153.075317,707.910950 133.141754,678.479980 144.446777,647.567322 
z"/>
<path fill="#607673" opacity="1.000000" stroke="none" 
	d="
M781.322266,670.976562 
	C780.892334,667.299377 780.846741,663.600281 780.906555,659.450378 
	C784.583801,659.453430 786.785828,661.355408 786.823120,665.059082 
	C786.856567,668.392700 785.457825,670.766663 781.322266,670.976562 
z"/>
<path fill="#FCF3DF" opacity="1.000000" stroke="none" 
	d="
M333.542511,415.540222 
	C329.993958,409.170898 326.281830,403.235870 323.524597,396.886230 
	C309.493317,364.573547 305.361664,331.264740 315.183472,297.015564 
	C321.100464,276.382690 333.745819,260.393463 351.498810,248.446930 
	C356.695160,244.950134 362.298920,243.853195 367.890259,247.454758 
	C372.212128,250.238571 374.345703,254.682098 372.944611,259.517609 
	C371.958710,262.920197 369.781647,266.798279 366.951752,268.714233 
	C347.043488,282.192902 338.689056,301.713684 336.982574,324.703735 
	C335.036743,350.918304 340.250763,375.665253 353.260040,398.651031 
	C356.541473,404.448883 355.609558,411.322998 351.097717,415.633759 
	C346.401337,420.120850 340.448669,420.172363 333.542511,415.540222 
z"/>
<path fill="#5D7371" opacity="1.000000" stroke="none" 
	d="
M221.092285,723.346191 
	C226.256149,723.287170 227.068604,727.264771 226.278488,730.217224 
	C225.008484,734.962769 221.839615,732.105774 219.215775,730.849731 
	C219.766129,728.277649 220.284286,725.856079 221.092285,723.346191 
z"/>
<path fill="#5E7472" opacity="1.000000" stroke="none" 
	d="
M473.999908,683.192566 
	C482.665497,683.181702 490.831177,683.132690 498.996521,683.166565 
	C505.323151,683.192749 509.516235,686.947449 509.638489,692.566956 
	C509.767975,698.519470 505.723419,702.141541 498.832703,702.140991 
	C407.845154,702.134155 316.857574,702.116638 225.870026,702.096863 
	C224.370789,702.096497 222.859512,702.144104 221.374512,701.981140 
	C216.636810,701.461304 213.019211,697.610840 212.868484,693.040283 
	C212.712097,688.297668 215.839493,684.266663 220.552780,683.352905 
	C222.006454,683.071045 223.538498,683.138489 225.034653,683.138672 
	C307.856384,683.149597 390.678131,683.170349 473.999908,683.192566 
z"/>
<path fill="#5D7371" opacity="1.000000" stroke="none" 
	d="
M569.000000,664.033203 
	C540.667175,664.018005 512.834290,664.028198 485.001556,663.982239 
	C478.624512,663.971680 474.544189,660.671875 474.054291,655.383362 
	C473.553070,649.972534 477.173584,645.588196 482.610870,645.097412 
	C483.934357,644.977905 485.275665,645.045532 486.608795,645.045410 
	C572.940613,645.037292 659.272461,645.030884 745.604309,645.024963 
	C751.727417,645.024597 755.625549,647.477600 756.844666,652.090515 
	C757.965332,656.330872 755.947815,660.974609 751.767212,662.967224 
	C750.199219,663.714539 748.265137,663.979797 746.497559,663.981445 
	C687.498413,664.036621 628.499207,664.033142 569.000000,664.033203 
z"/>
<path fill="#5E7471" opacity="1.000000" stroke="none" 
	d="
M241.000168,664.003418 
	C234.667831,664.000244 228.832214,664.113464 223.003891,663.956238 
	C216.802765,663.788940 212.905243,660.019409 212.934555,654.547119 
	C212.965302,648.807556 217.018204,645.034424 223.380737,645.030701 
	C293.203918,644.989746 363.027100,644.967163 432.850281,644.963989 
	C439.413757,644.963745 443.406097,648.574280 443.431915,654.316956 
	C443.458496,660.229553 439.118195,663.947632 431.973206,663.951050 
	C368.482178,663.981689 304.991150,663.987549 241.000168,664.003418 
z"/>
</svg>