<?xml version="1.0" encoding="UTF-8"?>
<svg version="1.1" xmlns="http://www.w3.org/2000/svg" width="163" height="150">
<path d="M0 0 C0.88307768 0.00184359 1.76615536 0.00368717 2.67599297 0.00558662 C3.68844078 0.0028373 4.7008886 0.00008797 5.74401665 -0.00274467 C7.41636375 0.00804115 7.41636375 0.00804115 9.12249565 0.01904488 C10.29321617 0.01875282 11.46393669 0.01846077 12.67013359 0.01815987 C15.88485784 0.01931647 19.09940916 0.02936368 22.31409883 0.04330778 C25.67200695 0.05578973 29.02991826 0.05698363 32.38784599 0.0593586 C38.74852004 0.06558084 45.10912553 0.08200168 51.46976936 0.10205758 C58.71029711 0.12439346 65.95082808 0.13540418 73.19138169 0.14544845 C88.08756598 0.1663673 102.98368608 0.20155769 117.87981987 0.24609566 C118.94231987 2.12109566 118.94231987 2.12109566 119.87981987 4.24609566 C119.54981987 4.90609566 119.21981987 5.56609566 118.87981987 6.24609566 C81.91981987 6.57609566 44.95981987 6.90609566 6.87981987 7.24609566 C59.34981987 7.74109566 59.34981987 7.74109566 112.87981987 8.24609566 C112.54981987 12.20609566 112.21981987 16.16609566 111.87981987 20.24609566 C112.37481987 23.71109566 112.37481987 23.71109566 112.87981987 27.24609566 C77.89981987 27.57609566 42.91981987 27.90609566 6.87981987 28.24609566 C43.50981987 28.57609566 80.13981987 28.90609566 117.87981987 29.24609566 C118.86981987 31.22609566 118.86981987 31.22609566 119.87981987 33.24609566 C117.36773366 35.75818187 116.55344779 35.50197296 113.07932854 35.52025032 C111.55887428 35.53521301 111.55887428 35.53521301 110.00770378 35.55047798 C108.8913102 35.55114265 107.77491661 35.55180733 106.62469292 35.55249214 C105.45225029 35.56081566 104.27980766 35.56913918 103.07183647 35.57771492 C99.85061552 35.59772422 96.62954448 35.60846359 93.40826964 35.61354136 C91.39574666 35.6171818 89.38324865 35.62342028 87.37073517 35.63054276 C80.34941958 35.65505167 73.328178 35.66809167 66.30682182 35.67163277 C59.76288634 35.67526639 53.21942038 35.70514498 46.67562836 35.74703735 C41.05770564 35.78174092 35.43993844 35.79718123 29.82190925 35.7978788 C26.46642543 35.7986718 23.11141935 35.80741887 19.7560463 35.83587646 C16.01132348 35.86267624 12.26789957 35.85799768 8.52313042 35.84546089 C7.41280952 35.86029518 6.30248863 35.87512947 5.15852165 35.89041328 C-2.3591947 35.81859976 -2.3591947 35.81859976 -6.26976204 32.87660408 C-8.0422247 30.35691517 -9.17294422 28.16673972 -10.12018013 25.24609566 C-10.45018013 24.58609566 -10.78018013 23.92609566 -11.12018013 23.24609566 C-11.83784157 15.57263874 -10.72895844 10.72446674 -6.05768013 4.49609566 C-2.42880556 0.28191874 -2.42880556 0.28191874 0 0 Z M-2.12018013 8.24609566 C-5.50617456 11.77930724 -6.15917898 15.48823544 -6.12018013 20.24609566 C-5.3323266 22.66982155 -5.3323266 22.66982155 -4.12018013 24.24609566 C-3.46018013 23.58609566 -2.80018013 22.92609566 -2.12018013 22.24609566 C-2.30580513 21.35922066 -2.49143013 20.47234566 -2.68268013 19.55859566 C-3.26408505 15.15652985 -2.08200054 13.16973648 -0.12018013 9.24609566 C-0.78018013 8.91609566 -1.44018013 8.58609566 -2.12018013 8.24609566 Z M0.87981987 8.24609566 C1.86981987 8.74109566 1.86981987 8.74109566 2.87981987 9.24609566 C2.87981987 14.85609566 2.87981987 20.46609566 2.87981987 26.24609566 C2.21981987 26.57609566 1.55981987 26.90609566 0.87981987 27.24609566 C1.86981987 27.24609566 2.85981987 27.24609566 3.87981987 27.24609566 C5.52962057 23.94649425 5.26240348 20.25481681 5.44231987 16.62109566 C5.50709526 15.41840034 5.50709526 15.41840034 5.57317924 14.19140816 C5.67933444 12.20984455 5.78008842 10.22799295 5.87981987 8.24609566 C4.22981987 8.24609566 2.57981987 8.24609566 0.87981987 8.24609566 Z M10.87981987 14.24609566 C11.87981987 16.24609566 11.87981987 16.24609566 11.87981987 16.24609566 Z M12.87981987 14.24609566 C12.87981987 14.90609566 12.87981987 15.56609566 12.87981987 16.24609566 C24.42981987 16.24609566 35.97981987 16.24609566 47.87981987 16.24609566 C47.87981987 15.58609566 47.87981987 14.92609566 47.87981987 14.24609566 C36.32981987 14.24609566 24.77981987 14.24609566 12.87981987 14.24609566 Z M48.87981987 14.24609566 C49.87981987 16.24609566 49.87981987 16.24609566 49.87981987 16.24609566 Z M56.87981987 14.24609566 C57.87981987 16.24609566 57.87981987 16.24609566 57.87981987 16.24609566 Z M58.87981987 14.24609566 C58.87981987 14.90609566 58.87981987 15.56609566 58.87981987 16.24609566 C73.72981987 16.24609566 88.57981987 16.24609566 103.87981987 16.24609566 C103.38481987 15.25609566 103.38481987 15.25609566 102.87981987 14.24609566 C88.35981987 14.24609566 73.83981987 14.24609566 58.87981987 14.24609566 Z M10.87981987 21.24609566 C11.87981987 23.24609566 11.87981987 23.24609566 11.87981987 23.24609566 Z M12.87981987 21.24609566 C12.87981987 21.90609566 12.87981987 22.56609566 12.87981987 23.24609566 C28.38981987 23.24609566 43.89981987 23.24609566 59.87981987 23.24609566 C59.87981987 22.58609566 59.87981987 21.92609566 59.87981987 21.24609566 C44.36981987 21.24609566 28.85981987 21.24609566 12.87981987 21.24609566 Z M60.87981987 21.24609566 C61.87981987 23.24609566 61.87981987 23.24609566 61.87981987 23.24609566 Z M-2.12018013 24.24609566 C-2.12018013 25.23609566 -2.12018013 26.22609566 -2.12018013 27.24609566 C-1.46018013 26.58609566 -0.80018013 25.92609566 -0.12018013 25.24609566 C-0.78018013 24.91609566 -1.44018013 24.58609566 -2.12018013 24.24609566 Z M4.87981987 25.24609566 C5.87981987 27.24609566 5.87981987 27.24609566 5.87981987 27.24609566 Z " fill="#FDF8E5" transform="translate(28.120180130004883,100.75390434265137)"/>
<path d="M0 0 C1.86602738 5.59808214 1.85898614 11.67262638 -0.5 17.125 C-0.995 18.07375 -1.49 19.0225 -2 20 C-0.906875 20.226875 0.18625 20.45375 1.3125 20.6875 C5.60428701 22.21508521 6.09831959 23.01552676 8 27 C8.680625 27.969375 9.36125 28.93875 10.0625 29.9375 C14.98311469 37.71524579 15.17620884 46.30207814 13.34765625 55.16015625 C11.16898438 62.40681162 7.66135085 68.08910288 3 74 C2.236875 74.969375 1.47375 75.93875 0.6875 76.9375 C0.130625 77.618125 -0.42625 78.29875 -1 79 C-1.66 79.99 -2.32 80.98 -3 82 C-8.61236027 83.11293263 -14.58385684 83.37171433 -20.25 82.5 C-24.05304921 81.99292677 -27.12310844 82.24328988 -30.890625 82.73046875 C-33.6560971 83.08383463 -36.21996562 83.26476518 -39 83 C-40.48828125 81.68359375 -40.48828125 81.68359375 -42 80 C-42.46019531 79.49082031 -42.92039062 78.98164062 -43.39453125 78.45703125 C-44.94928677 76.65385749 -46.47651472 74.82965786 -48 73 C-48.52207031 72.401875 -49.04414062 71.80375 -49.58203125 71.1875 C-56.16961215 63.1823384 -59.78128553 52.11978893 -58.78125 41.7265625 C-57.76422082 35.99599422 -55.35995582 31.69327162 -52 27 C-51.46375 26.236875 -50.9275 25.47375 -50.375 24.6875 C-46.65051042 20.11653551 -46.65051042 20.11653551 -44.09887695 19.65942383 C-43.40238037 19.67513428 -42.70588379 19.69084473 -41.98828125 19.70703125 C-41.23095703 19.71669922 -40.47363281 19.72636719 -39.69335938 19.73632812 C-38.90767578 19.76146484 -38.12199219 19.78660156 -37.3125 19.8125 C-36.11657227 19.83280273 -36.11657227 19.83280273 -34.89648438 19.85351562 C-32.93070033 19.88882911 -30.96526418 19.94263553 -29 20 C-27.86650713 14.5787268 -27.86650713 14.5787268 -29.9375 9.5625 C-30.618125 8.716875 -31.29875 7.87125 -32 7 C-31.25 5.0625 -31.25 5.0625 -30 3 C-27.875 2.25 -27.875 2.25 -26 2 C-25.6596875 3.175625 -25.6596875 3.175625 -25.3125 4.375 C-24.21875 7.21875 -24.21875 7.21875 -21.375 8.3125 C-20.59125 8.539375 -19.8075 8.76625 -19 9 C-18.79375 8.38125 -18.5875 7.7625 -18.375 7.125 C-16.44444875 4.1414208 -14.34938072 3.90712395 -11 3 C-4.59183673 -0.20408163 -4.59183673 -0.20408163 0 0 Z M-5 1 C-1 2 -1 2 -1 2 Z M-22 10 C-21.67 10.99 -21.34 11.98 -21 13 C-21 12.01 -21 11.02 -21 10 C-21.33 10 -21.66 10 -22 10 Z M-6 8 C-6.33 8.99 -6.66 9.98 -7 11 C-8.1446875 10.87625 -8.1446875 10.87625 -9.3125 10.75 C-12.11713137 10.69835543 -12.11713137 10.69835543 -13.625 12.875 C-14.07875 13.57625 -14.5325 14.2775 -15 15 C-15.99 15.66 -16.98 16.32 -18 17 C-17.67 17.99 -17.34 18.98 -17 20 C-11.54936467 18.82437277 -8.58697366 17.53646669 -5 13 C-4.12761142 10.32209104 -4.12761142 10.32209104 -4 8 C-4.66 8 -5.32 8 -6 8 Z M-27 15 C-27 16.65 -27 18.3 -27 20 C-26.67 20 -26.34 20 -26 20 C-26 18.35 -26 16.7 -26 15 C-26.33 15 -26.66 15 -27 15 Z M-19 19 C-18 23 -18 23 -18 23 Z M-26 20 C-25 23 -25 23 -25 23 Z M-41 26 C-40.67 26.66 -40.34 27.32 -40 28 C-37.36 27.67 -34.72 27.34 -32 27 C-32 26.67 -32 26.34 -32 26 C-34.97 26 -37.94 26 -41 26 Z M-12 27 C-17.59314311 28.19853067 -23.20758968 28.62053563 -28.8125 27.375 C-33.69809233 26.80022443 -38.22913901 27.94781616 -43 29 C-43.72703125 29.144375 -44.4540625 29.28875 -45.203125 29.4375 C-48.23503319 30.38661909 -49.30485461 32.40077707 -51 35 C-54.34639097 42.8082456 -53.16107055 51.49382936 -50.3125 59.3125 C-48.12392632 64.2828871 -44.99632456 69.50183772 -40 72 C-39.34 72.66 -38.68 73.32 -38 74 C-31.79865047 75.46728359 -25.03394646 75.12475265 -18.6875 75.1875 C-17.91083984 75.20055176 -17.13417969 75.21360352 -16.33398438 75.22705078 C-9.39691828 75.23754332 -4.91622734 73.52835873 0.2890625 68.9140625 C7.33694267 61.0294477 8.48279683 51.81079678 8.2734375 41.65625 C7.90749901 36.76312966 7.2919312 34.62956516 4 31 C1.6030371 29.88107514 -0.35511777 29.45776808 -3 29 C-3 28.01 -3 27.02 -3 26 C-7.65052872 25.73067479 -7.65052872 25.73067479 -12 27 Z M-33 76 C-33 76.33 -33 76.66 -33 77 C-31.35 77 -29.7 77 -28 77 C-28 76.67 -28 76.34 -28 76 C-29.65 76 -31.3 76 -33 76 Z M-17 76 C-17 76.33 -17 76.66 -17 77 C-15.02 77 -13.04 77 -11 77 C-11 76.67 -11 76.34 -11 76 C-12.98 76 -14.96 76 -17 76 Z " fill="#FBF6E2" transform="translate(103,13)"/>
<path d="M0 0 C0.721875 0.268125 1.44375 0.53625 2.1875 0.8125 C1.76001756 3.69800649 1.15935547 4.84374152 -0.8359375 7.05859375 C-4.2574266 11.82568825 -3.3133828 17.16365514 -2.8125 22.8125 C-2.33043356 25.04778766 -2.33043356 25.04778766 -1.6875 26.9375 C-1.39875 27.88625 -1.11 28.835 -0.8125 29.8125 C-1.4725 30.8025 -2.1325 31.7925 -2.8125 32.8125 C-5.62142437 31.79160942 -6.64031327 31.13295863 -8.078125 28.45703125 C-10.80485374 20.61227595 -12.05722205 14.54538691 -8.79296875 6.68359375 C-6.70856476 2.70578693 -4.70602802 -0.3137352 0 0 Z " fill="#FBF6E2" transform="translate(64.8125,43.1875)"/>
<path d="M0 0 C39.27 0.33 78.54 0.66 119 1 C119 1.33 119 1.66 119 2 C103.92730738 2.04669689 88.85462037 2.08197749 73.78187084 2.10362434 C66.78351106 2.11394199 59.78519619 2.12801161 52.78686523 2.15087891 C46.03715202 2.17292335 39.28749519 2.18455834 32.53774452 2.18975449 C29.95846127 2.19345901 27.37918066 2.20069269 24.79991722 2.21146011 C21.19622582 2.22591015 17.59272923 2.22798065 13.98901367 2.22705078 C12.91511383 2.23424133 11.84121399 2.24143188 10.73477173 2.24884033 C9.75460587 2.246091 8.77444 2.24334167 7.76457214 2.24050903 C6.91191363 2.24235262 6.05925512 2.24419621 5.18075848 2.24609566 C3 2 3 2 0 0 Z " fill="#FFFFFF" transform="translate(27,136)"/>
<path d="M0 0 C1.28037045 0.00276538 1.28037045 0.00276538 2.58660698 0.00558662 C3.56539818 0.0028373 4.54418938 0.00008797 5.55264091 -0.00274467 C6.63013603 0.00444588 7.70763115 0.01163643 8.81777763 0.01904488 C10.51533699 0.0186068 10.51533699 0.0186068 12.24719048 0.01815987 C16.00240456 0.01955753 19.75742227 0.03513939 23.51260185 0.05078316 C26.11049097 0.05451173 28.70838149 0.05735944 31.30627251 0.0593586 C37.45445525 0.06622477 43.60255648 0.08200104 49.75070846 0.10205758 C56.7494025 0.1243943 63.74809989 0.13540439 70.74682069 0.14544845 C85.14534837 0.16636669 99.54381635 0.20155657 113.94228935 0.24609566 C113.94228935 0.57609566 113.94228935 0.90609566 113.94228935 1.24609566 C75.00228935 1.57609566 36.06228935 1.90609566 -4.05771065 2.24609566 C-2.05771065 0.24609566 -2.05771065 0.24609566 0 0 Z " fill="#FFFFFC" transform="translate(32.05771064758301,98.75390434265137)"/>
<path d="M0 0 C0 3 0 3 -1.53125 4.75390625 C-2.1809375 5.35074219 -2.830625 5.94757813 -3.5 6.5625 C-4.70186215 7.67136091 -5.87711422 8.81123061 -7 10 C-7 10.66 -7 11.32 -7 12 C-7.99 11.67 -8.98 11.34 -10 11 C-9.34 10.01 -8.68 9.02 -8 8 C-8 7.01 -8 6.02 -8 5 C-5 3 -5 3 -3 3 C-1.37485532 1.54166642 -1.37485532 1.54166642 0 0 Z M-11 5 C-10.34 5.33 -9.68 5.66 -9 6 C-9.33 6.99 -9.66 7.98 -10 9 C-11.77049689 9.05410687 -13.54146849 9.09284119 -15.3125 9.125 C-16.79169922 9.15980469 -16.79169922 9.15980469 -18.30078125 9.1953125 C-21 9 -21 9 -24 7 C-23.31292969 7.02320312 -22.62585938 7.04640625 -21.91796875 7.0703125 C-21.01691406 7.08835937 -20.11585937 7.10640625 -19.1875 7.125 C-18.29417969 7.14820312 -17.40085937 7.17140625 -16.48046875 7.1953125 C-13.74597286 7.18285827 -13.74597286 7.18285827 -11 5 Z " fill="#F3EEDF" transform="translate(107,80)"/>
<path d="M0 0 C0.66 0.33 1.32 0.66 2 1 C1.96519531 2.03447266 1.96519531 2.03447266 1.9296875 3.08984375 C1.80808826 9.42168979 2.39336375 14.87469929 4 21 C3.34 21.33 2.68 21.66 2 22 C-0.72077542 15.470139 -2.1860551 6.8704589 0 0 Z " fill="#F9F9E9" transform="translate(52,51)"/>
<path d="M0 0 C0.33 0 0.66 0 1 0 C1 4.95 1 9.9 1 15 C0.67 15 0.34 15 0 15 C0 10.05 0 5.1 0 0 Z " fill="#FFFFEB" transform="translate(109,51)"/>
<path d="M0 0 C0.33 0 0.66 0 1 0 C1 4.29 1 8.58 1 13 C0.67 13 0.34 13 0 13 C0 8.71 0 4.42 0 0 Z " fill="#FFF5EE" transform="translate(118,52)"/>
<path d="M0 0 C0.33 0 0.66 0 1 0 C1 4.29 1 8.58 1 13 C0.67 13 0.34 13 0 13 C0 8.71 0 4.42 0 0 Z " fill="#FFEBEB" transform="translate(62,53)"/>
<path d="M0 0 C1.258125 -0.04125 2.51625 -0.0825 3.8125 -0.125 C4.52019531 -0.14820312 5.22789063 -0.17140625 5.95703125 -0.1953125 C8 0 8 0 11 2 C7.37 1.67 3.74 1.34 0 1 C0 0.67 0 0.34 0 0 Z " fill="#FFF4D4" transform="translate(63,31)"/>
<path d="M0 0 C0.33 0 0.66 0 1 0 C1 3.63 1 7.26 1 11 C0.67 11 0.34 11 0 11 C0 7.37 0 3.74 0 0 Z " fill="#FFFFDC" transform="translate(15,113)"/>
<path d="M0 0 C1.98 1.65 3.96 3.3 6 5 C3 5 3 5 1.3125 3.625 C0 2 0 2 0 0 Z " fill="#FFF7AA" transform="translate(54,86)"/>
<path d="M0 0 C0.33 0 0.66 0 1 0 C1 3.3 1 6.6 1 10 C0.67 10 0.34 10 0 10 C0 6.7 0 3.4 0 0 Z " fill="#FFF2F2" transform="translate(105,16)"/>
<path d="M0 0 C2.64 0 5.28 0 8 0 C8 0.33 8 0.66 8 1 C5.36 1 2.72 1 0 1 C0 0.67 0 0.34 0 0 Z " fill="#FFF4E9" transform="translate(77,43)"/>
<path d="M0 0 C0.33 0 0.66 0 1 0 C1 2.31 1 4.62 1 7 C0.67 7 0.34 7 0 7 C0 4.69 0 2.38 0 0 Z " fill="#FFF2CE" transform="translate(43,60)"/>
<path d="M0 0 C1.98 0 3.96 0 6 0 C6 0.33 6 0.66 6 1 C4.02 1 2.04 1 0 1 C0 0.67 0 0.34 0 0 Z " fill="#FFFFFF" transform="translate(141,108)"/>
<path d="M0 0 C0.33 0 0.66 0 1 0 C1 1.98 1 3.96 1 6 C0.67 6 0.34 6 0 6 C0 4.02 0 2.04 0 0 Z " fill="#FFDB9C" transform="translate(43,50)"/>
<path d="M0 0 C1.65 0 3.3 0 5 0 C5 0.33 5 0.66 5 1 C3.35 1 1.7 1 0 1 C0 0.67 0 0.34 0 0 Z " fill="#FFFFE5" transform="translate(141,128)"/>
<path d="M0 0 C0.33 0 0.66 0 1 0 C1 1.65 1 3.3 1 5 C0.67 5 0.34 5 0 5 C0 3.35 0 1.7 0 0 Z " fill="#FFFFE5" transform="translate(140,116)"/>
<path d="M0 0 C1.65 0 3.3 0 5 0 C5 0.33 5 0.66 5 1 C3.35 1 1.7 1 0 1 C0 0.67 0 0.34 0 0 Z " fill="#FFFFFF" transform="translate(87,97)"/>
<path d="M0 0 C1.65 0 3.3 0 5 0 C5 0.33 5 0.66 5 1 C3.35 1 1.7 1 0 1 C0 0.67 0 0.34 0 0 Z " fill="#FFFFFF" transform="translate(70,97)"/>
<path d="M0 0 C0.66 1.32 1.32 2.64 2 4 C1.34 3.67 0.68 3.34 0 3 C0 2.01 0 1.02 0 0 Z " fill="#FFFFFF" transform="translate(53,48)"/>
<path d="M0 0 C1 4 1 4 1 4 Z " fill="#FFFFFF" transform="translate(141,121)"/>
<path d="M0 0 C1 4 1 4 1 4 Z " fill="#FFFFE9" transform="translate(141,112)"/>
<path d="M0 0 C4 1 4 1 4 1 Z " fill="#FFFFFF" transform="translate(83,96)"/>
<path d="M0 0 C4 1 4 1 4 1 Z " fill="#FFFFFF" transform="translate(75,96)"/>
<path d="M0 0 C4 1 4 1 4 1 Z " fill="#FFE9D4" transform="translate(79,95)"/>
<path d="M0 0 C4 1 4 1 4 1 Z " fill="#FFFFFF" transform="translate(79,86)"/>
<path d="M0 0 C0 3 0 3 0 3 Z " fill="#FFFFFF" transform="translate(103,78)"/>
<path d="M0 0 C0 3 0 3 0 3 Z " fill="#DFDFCA" transform="translate(56,72)"/>
<path d="M0 0 C1 4 1 4 1 4 Z " fill="#FFBFBF" transform="translate(116,69)"/>
<path d="M0 0 C1 4 1 4 1 4 Z " fill="#FFFFEF" transform="translate(117,65)"/>
<path d="M0 0 C1 4 1 4 1 4 Z " fill="#FFFFEF" transform="translate(108,66)"/>
<path d="M0 0 C1 4 1 4 1 4 Z " fill="#FFFF7F" transform="translate(42,56)"/>
<path d="M0 0 C4 1 4 1 4 1 Z " fill="#FFFFFF" transform="translate(59,32)"/>
<path d="M0 0 C0.99 0.495 0.99 0.495 2 1 C1.01 1.495 1.01 1.495 0 2 C0 1.34 0 0.68 0 0 Z " fill="#AAAAAA" transform="translate(21,104)"/>
<path d="M0 0 C3 1 3 1 3 1 Z " fill="#FFFFFF" transform="translate(92,96)"/>
<path d="M0 0 C3 1 3 1 3 1 Z " fill="#FFFFFF" transform="translate(67,96)"/>
<path d="M0 0 C3 1 3 1 3 1 Z " fill="#FFFFFF" transform="translate(59,76)"/>
<path d="" fill="#FFFFAA" transform="translate(0,0)"/>
<path d="" fill="#E9E9E9" transform="translate(0,0)"/>
<path d="" fill="#FFFFFF" transform="translate(0,0)"/>
<path d="" fill="#FFFFE2" transform="translate(0,0)"/>
<path d="" fill="#FFFFE9" transform="translate(0,0)"/>
<path d="M0 0 C0.33 0.66 0.66 1.32 1 2 C0.34 1.67 -0.32 1.34 -1 1 C-0.67 0.67 -0.34 0.34 0 0 Z " fill="#FFAAAA" transform="translate(65,49)"/>
<path d="" fill="#FFFFD4" transform="translate(0,0)"/>
<path d="M0 0 C3 1 3 1 3 1 Z " fill="#FFFFFF" transform="translate(85,42)"/>
<path d="M0 0 C3 1 3 1 3 1 Z " fill="#FFFFFF" transform="translate(74,42)"/>
<path d="M0 0 C3 1 3 1 3 1 Z " fill="#FFFFD4" transform="translate(88,41)"/>
<path d="M0 0 C3 1 3 1 3 1 Z " fill="#FFFFFF" transform="translate(71,41)"/>
<path d="" fill="#AAAAAA" transform="translate(0,0)"/>
<path d="" fill="#BFBFBF" transform="translate(0,0)"/>
<path d="" fill="#FFFFBF" transform="translate(0,0)"/>
<path d="" fill="#FFFFFF" transform="translate(0,0)"/>
<path d="" fill="#FFD4D4" transform="translate(0,0)"/>
<path d="" fill="#FFFFFF" transform="translate(0,0)"/>
<path d="" fill="#FFBFBF" transform="translate(0,0)"/>
<path d="" fill="#FFFFFF" transform="translate(0,0)"/>
<path d="" fill="#FFFFFF" transform="translate(0,0)"/>
<path d="" fill="#FFFFBF" transform="translate(0,0)"/>
<path d="M0 0 C2 1 2 1 2 1 Z " fill="#FFFFFF" transform="translate(95,95)"/>
<path d="" fill="#FFFFFF" transform="translate(0,0)"/>
<path d="" fill="#FFFFFF" transform="translate(0,0)"/>
<path d="" fill="#FFFFFF" transform="translate(0,0)"/>
<path d="" fill="#FFFFFF" transform="translate(0,0)"/>
<path d="" fill="#FFFFFF" transform="translate(0,0)"/>
<path d="" fill="#FFFFFF" transform="translate(0,0)"/>
<path d="" fill="#FFFFFF" transform="translate(0,0)"/>
<path d="" fill="#D4D4D4" transform="translate(0,0)"/>
<path d="" fill="#BFBFBF" transform="translate(0,0)"/>
<path d="" fill="#FFFFFF" transform="translate(0,0)"/>
<path d="" fill="#FFFFD4" transform="translate(0,0)"/>
<path d="" fill="#D4D4D4" transform="translate(0,0)"/>
<path d="" fill="#FFFFFF" transform="translate(0,0)"/>
<path d="" fill="#FFFFD4" transform="translate(0,0)"/>
<path d="" fill="#FFFFBF" transform="translate(0,0)"/>
<path d="" fill="#FFFFFF" transform="translate(0,0)"/>
<path d="" fill="#FFFFD4" transform="translate(0,0)"/>
<path d="" fill="#FFFFFF" transform="translate(0,0)"/>
<path d="" fill="#FFDFDF" transform="translate(0,0)"/>
<path d="" fill="#BFBFBF" transform="translate(0,0)"/>
<path d="" fill="#FFFFD4" transform="translate(0,0)"/>
<path d="" fill="#FFFFD4" transform="translate(0,0)"/>
<path d="" fill="#FFFFBF" transform="translate(0,0)"/>
<path d="" fill="#FFFFFF" transform="translate(0,0)"/>
<path d="" fill="#FFFFFF" transform="translate(0,0)"/>
<path d="" fill="#FFFFFF" transform="translate(0,0)"/>
<path d="" fill="#FFFFFF" transform="translate(0,0)"/>
<path d="" fill="#FFFFFF" transform="translate(0,0)"/>
<path d="M0 0 C2 1 2 1 2 1 Z " fill="#FFFFD4" transform="translate(102,33)"/>
<path d="" fill="#FFFFFF" transform="translate(0,0)"/>
<path d="" fill="#FFFFBF" transform="translate(0,0)"/>
<path d="" fill="#FFFFFF" transform="translate(0,0)"/>
<path d="" fill="#FFFFBF" transform="translate(0,0)"/>
<path d="" fill="#FFFFFF" transform="translate(0,0)"/>
<path d="" fill="#FFFFFF" transform="translate(0,0)"/>
<path d="" fill="#FFFFFF" transform="translate(0,0)"/>
<path d="" fill="#FFFFFF" transform="translate(0,0)"/>
<path d="" fill="#FFFFFF" transform="translate(0,0)"/>
<path d="M0 0 C2 1 2 1 2 1 Z " fill="#FFFFFF" transform="translate(92,15)"/>
<path d="M0 0 C2 1 2 1 2 1 Z " fill="#FFFFFF" transform="translate(73,14)"/>
<path d="" fill="#FFFFFF" transform="translate(0,0)"/>
<path d="" fill="#FFFFFF" transform="translate(0,0)"/>
<path d="" fill="#FFFFFF" transform="translate(0,0)"/>
<path d="" fill="#FFFFFF" transform="translate(0,0)"/>
<path d="" fill="#FFFFFF" transform="translate(0,0)"/>
<path d="" fill="#FFBFBF" transform="translate(0,0)"/>
<path d="" fill="#FFBFBF" transform="translate(0,0)"/>
<path d="" fill="#FFFFFF" transform="translate(0,0)"/>
<path d="" fill="#FFFFFF" transform="translate(0,0)"/>
<path d="" fill="#FFFFBF" transform="translate(0,0)"/>
<path d="" fill="#FFFFFF" transform="translate(0,0)"/>
<path d="" fill="#FFFFCC" transform="translate(0,0)"/>
<path d="" fill="#FFFFFF" transform="translate(0,0)"/>
<path d="" fill="#FFFFFF" transform="translate(0,0)"/>
<path d="" fill="#FFFFFF" transform="translate(0,0)"/>
<path d="" fill="#FFFFFF" transform="translate(0,0)"/>
<path d="" fill="#FFFFFF" transform="translate(0,0)"/>
<path d="" fill="#FFFF80" transform="translate(0,0)"/>
<path d="" fill="#FFFFFF" transform="translate(0,0)"/>
<path d="" fill="#FFFFFF" transform="translate(0,0)"/>
<path d="" fill="#FFFFFF" transform="translate(0,0)"/>
<path d="" fill="#FFAAAA" transform="translate(0,0)"/>
<path d="" fill="#FFFFFF" transform="translate(0,0)"/>
<path d="" fill="#FFFFFF" transform="translate(0,0)"/>
<path d="" fill="#FFFFFF" transform="translate(0,0)"/>
<path d="" fill="#AAAAAA" transform="translate(0,0)"/>
<path d="" fill="#FFFFFF" transform="translate(0,0)"/>
<path d="" fill="#FFFFFF" transform="translate(0,0)"/>
<path d="" fill="#FFFFFF" transform="translate(0,0)"/>
<path d="" fill="#FFFFAA" transform="translate(0,0)"/>
<path d="" fill="#FFFFFF" transform="translate(0,0)"/>
<path d="" fill="#FFFFFF" transform="translate(0,0)"/>
<path d="" fill="#FFAAAA" transform="translate(0,0)"/>
<path d="" fill="#FFFFFF" transform="translate(0,0)"/>
<path d="" fill="#AAAAAA" transform="translate(0,0)"/>
<path d="" fill="#FFFFFF" transform="translate(0,0)"/>
<path d="" fill="#FFFFAA" transform="translate(0,0)"/>
<path d="" fill="#FFFFFF" transform="translate(0,0)"/>
<path d="" fill="#FFFFFF" transform="translate(0,0)"/>
<path d="" fill="#FFAAAA" transform="translate(0,0)"/>
<path d="" fill="#FFFFFF" transform="translate(0,0)"/>
<path d="" fill="#FFFFFF" transform="translate(0,0)"/>
<path d="" fill="#FFFFFF" transform="translate(0,0)"/>
<path d="" fill="#FFFFFF" transform="translate(0,0)"/>
<path d="" fill="#FFFF80" transform="translate(0,0)"/>
<path d="" fill="#AAAAAA" transform="translate(0,0)"/>
<path d="" fill="#FFAAAA" transform="translate(0,0)"/>
<path d="" fill="#FFFFFF" transform="translate(0,0)"/>
<path d="" fill="#FFFFFF" transform="translate(0,0)"/>
<path d="" fill="#FFFFFF" transform="translate(0,0)"/>
<path d="" fill="#FFFFFF" transform="translate(0,0)"/>
<path d="" fill="#FFFFFF" transform="translate(0,0)"/>
<path d="" fill="#FFFFFF" transform="translate(0,0)"/>
<path d="" fill="#FFFFFF" transform="translate(0,0)"/>
<path d="" fill="#FFFFFF" transform="translate(0,0)"/>
<path d="" fill="#FFFFFF" transform="translate(0,0)"/>
<path d="" fill="#FFFFFF" transform="translate(0,0)"/>
<path d="" fill="#FFFFFF" transform="translate(0,0)"/>
<path d="" fill="#FFFFFF" transform="translate(0,0)"/>
<path d="" fill="#FFFFFF" transform="translate(0,0)"/>
<path d="" fill="#FFFFAA" transform="translate(0,0)"/>
<path d="" fill="#FFFFFF" transform="translate(0,0)"/>
<path d="" fill="#FFFFFF" transform="translate(0,0)"/>
<path d="" fill="#FFFFFF" transform="translate(0,0)"/>
<path d="" fill="#FFFFFF" transform="translate(0,0)"/>
<path d="" fill="#FFFFFF" transform="translate(0,0)"/>
<path d="" fill="#FFFFFF" transform="translate(0,0)"/>
<path d="" fill="#FFFFFF" transform="translate(0,0)"/>
<path d="" fill="#FFFFFF" transform="translate(0,0)"/>
<path d="" fill="#FFFFFF" transform="translate(0,0)"/>
<path d="" fill="#FFFFBF" transform="translate(0,0)"/>
<path d="" fill="#FFFFFF" transform="translate(0,0)"/>
<path d="" fill="#FFFFBF" transform="translate(0,0)"/>
<path d="" fill="#FFFFFF" transform="translate(0,0)"/>
<path d="" fill="#FFFF80" transform="translate(0,0)"/>
<path d="" fill="#FFFFFF" transform="translate(0,0)"/>
<path d="" fill="#FFFFFF" transform="translate(0,0)"/>
<path d="" fill="#FFAAAA" transform="translate(0,0)"/>
<path d="" fill="#FFFFFF" transform="translate(0,0)"/>
<path d="" fill="#FFFFFF" transform="translate(0,0)"/>
</svg>
